<svg width="20" height="20" viewBox="0 0 20 20" fill="none" xmlns="http://www.w3.org/2000/svg">
<path d="M14.6344 7.46208C15.2656 7.46208 15.779 6.94881 15.779 6.31768C15.779 5.68655 15.2656 5.17315 14.6345 5.17315H12.9525C12.9793 4.61757 12.7859 4.0844 12.4369 3.67745C12.4883 3.65382 12.5393 3.62862 12.5889 3.59995C13.0045 3.35995 13.3019 2.97253 13.4261 2.50894L13.4923 2.26191C13.6166 1.79836 13.5528 1.31406 13.3127 0.8984C13.0727 0.482737 12.6853 0.185356 12.2217 0.0611376H12.2216C11.2649 -0.195033 10.2775 0.37473 10.021 1.33191L9.95478 1.57879C9.83056 2.04234 9.89435 2.52667 10.1343 2.9423C10.1514 2.97175 10.1693 3.0007 10.1881 3.02913C10.0249 3.07996 9.86834 3.15008 9.72177 3.238C9.52685 3.35462 9.35173 3.50153 9.20298 3.67319L7.87318 4.54417C7.48362 4.79928 7.34033 5.29229 7.53256 5.71635L8.15545 7.09115L7.81381 8.55661C7.81365 8.5572 7.81381 8.55751 7.81365 8.55814C7.80703 8.58675 7.80365 8.61603 7.80357 8.6454V12.0829C7.80352 12.1708 7.83326 12.2562 7.88795 12.3251V13.8238H5.52362C5.45515 13.7702 5.37071 13.7412 5.28378 13.7412H4.27714C3.59019 13.7412 3.03125 14.3001 3.03125 14.9871V17.4155C3.03125 17.6311 3.20613 17.8061 3.42187 17.8061H3.75531C4.67706 17.8061 5.44901 17.1526 5.63272 16.2847H9.19654C10.0192 16.2847 10.7179 15.7467 10.9605 15.004L11.0456 15.1241V17.4764C10.9753 17.549 10.936 17.6461 10.9361 17.7472V18.7539C10.9361 19.4408 11.495 19.9997 12.1819 19.9997H14.6103C14.826 19.9997 15.001 19.8248 15.001 19.6091V19.2757C15.001 18.4175 14.4347 17.6893 13.6562 17.4445V14.2756C13.6564 13.8774 13.5934 13.4817 13.4696 13.1032L12.987 11.627L12.2857 8.63868L12.5202 7.46212L14.6344 7.46208ZM10.7095 1.78097L10.7755 1.5341C10.897 1.08074 11.3085 0.781213 11.7568 0.781213C11.8436 0.781213 11.9318 0.792346 12.0194 0.815861C12.2816 0.886173 12.5005 1.05418 12.6362 1.28918C12.7718 1.52402 12.8079 1.79777 12.7377 2.05972L12.6714 2.30679C12.6013 2.56878 12.4332 2.78788 12.1982 2.92339C11.9765 3.05233 11.7139 3.09178 11.464 3.0337C11.4336 3.02406 11.4031 3.01516 11.3723 3.00699C11.3682 3.00581 11.3639 3.00503 11.3598 3.00394C11.1279 2.92445 10.9347 2.76605 10.8109 2.55167C10.6753 2.31683 10.6393 2.04308 10.7095 1.78097ZM11.1384 3.7539C11.1671 3.76308 11.1961 3.77163 11.2254 3.77956C11.2316 3.78124 11.238 3.78229 11.2443 3.78397C11.8877 3.9964 12.2816 4.66198 12.1474 5.33534L12.1173 5.48854C12.1062 5.54514 12.1077 5.60351 12.1218 5.65945C12.1359 5.71539 12.1623 5.76751 12.1989 5.81205C12.2356 5.8566 12.2816 5.89247 12.3338 5.91708C12.386 5.9417 12.443 5.95444 12.5007 5.9544H14.6346C14.8348 5.9544 14.9978 6.11732 14.9978 6.31768C14.9978 6.51787 14.8348 6.68084 14.6346 6.68084H11.7377C11.2437 6.68084 10.8021 6.34975 10.6638 5.87549C10.6034 5.66846 10.3864 5.54908 10.1795 5.60987C9.97232 5.67026 9.85345 5.88709 9.91388 6.09416C10.1473 6.89509 10.8903 7.45583 11.7236 7.46212L11.5656 8.25478H8.68631L9.50083 4.76206C9.54767 4.56112 9.63724 4.37815 9.7622 4.22237C9.76587 4.21807 9.7695 4.21366 9.77302 4.20925C9.87172 4.08953 9.99024 3.98765 10.1234 3.90804C10.4315 3.72339 10.7906 3.66937 11.1384 3.7539ZM12.727 13.346C12.8251 13.6461 12.8751 13.9597 12.875 14.2754V17.3565H11.8268V14.9998C11.8268 14.9189 11.8017 14.84 11.755 14.7739L11.052 13.7816V12.4096L12.3449 12.177L12.727 13.346ZM8.58467 11.6923V9.03602H10.762L10.3292 11.6923H8.58467ZM11.5765 9.03602L12.1361 11.4208L11.1358 11.6007L11.5534 9.03602H11.5765ZM8.24412 5.39393C8.22847 5.35983 8.2256 5.32124 8.23605 5.28521C8.2465 5.24918 8.26957 5.21811 8.30103 5.19768L8.65029 4.96897L8.44689 5.84147L8.24412 5.39393ZM3.8125 17.0234V14.9871C3.8125 14.7307 4.02093 14.5223 4.27714 14.5223H4.89316V15.8869C4.89316 16.4951 4.41339 16.9935 3.8125 17.0234ZM9.19654 15.5035H5.6744V14.605H8.27857C8.49435 14.605 8.6692 14.4301 8.6692 14.2144V12.4735H10.2708V14.4292C10.2708 15.0216 9.78892 15.5035 9.19654 15.5035ZM14.2184 19.2185H12.1819C11.9257 19.2185 11.7173 19.01 11.7173 18.7538V18.1377H13.0818C13.69 18.1377 14.1883 18.6176 14.2184 19.2185H14.2184Z" fill="black"/>
<path d="M9.49231 19.2187H4.71264C4.49705 19.2187 4.32201 19.3937 4.32201 19.6093C4.32201 19.825 4.49705 19.9999 4.71264 19.9999H9.49231C9.70793 19.9999 9.88293 19.825 9.88293 19.6093C9.88293 19.3937 9.70805 19.2187 9.49231 19.2187ZM3.36182 19.2187C3.2583 19.219 3.15908 19.2602 3.08565 19.3331C3.013 19.4058 2.9712 19.5066 2.9712 19.6093C2.9712 19.712 3.013 19.8128 3.08565 19.8855C3.15827 19.9581 3.25909 19.9999 3.36182 19.9999C3.46456 19.9999 3.56534 19.9581 3.63799 19.8855C3.71065 19.8128 3.75245 19.712 3.75245 19.6093C3.75245 19.5066 3.71065 19.4058 3.63799 19.3331C3.56455 19.2602 3.46534 19.2191 3.36182 19.2187ZM1.82312 9.03622C1.92662 9.03577 2.02581 8.99466 2.09929 8.92176C2.17194 8.84915 2.21374 8.74829 2.21374 8.64559C2.21374 8.5429 2.17194 8.44208 2.09929 8.36942C2.02663 8.29677 1.92581 8.25497 1.82312 8.25497C1.72042 8.25497 1.61956 8.29677 1.54695 8.36942C1.47382 8.44208 1.43249 8.5429 1.43249 8.64559C1.43249 8.74829 1.47382 8.84915 1.54695 8.92176C1.62038 8.99474 1.71959 9.03585 1.82312 9.03622ZM5.67459 10.8331C5.67459 10.6173 5.49971 10.4425 5.28396 10.4425H0.390623C0.174999 10.4425 0 10.6173 0 10.8331C0 11.0488 0.174999 11.2237 0.390623 11.2237H5.28396C5.49971 11.2237 5.67459 11.0489 5.67459 10.8331ZM3.38546 9.03622H6.01576C6.23138 9.03622 6.40638 8.86122 6.40638 8.64559C6.40638 8.42985 6.23138 8.25497 6.01576 8.25497H3.38546C3.16983 8.25497 2.99483 8.42985 2.99483 8.64559C2.99483 8.86122 3.16983 9.03622 3.38546 9.03622Z" fill="black"/>
</svg>
