<svg width="20" height="20" viewBox="0 0 20 20" fill="none" xmlns="http://www.w3.org/2000/svg">
<g clip-path="url(#clip0_243_2969)">
<path d="M0.304362 10.7483C0.601424 10.9676 1.11024 11.3056 1.78288 11.6141C0.87919 11.9231 0.227333 12.7802 0.227333 13.7872V16.6846C0.227333 17.1378 0.596034 17.5065 1.04922 17.5065H4.31734C4.47917 17.5065 4.6103 17.3754 4.6103 17.2136C4.6103 17.0517 4.47917 16.9206 4.31734 16.9206H2.54918V13.9674C2.54918 13.8055 2.41805 13.6744 2.25622 13.6744C2.09439 13.6744 1.96326 13.8055 1.96326 13.9674V16.9206H1.04922C0.986664 16.9205 0.926686 16.8956 0.882449 16.8514C0.838211 16.8072 0.813327 16.7472 0.813255 16.6846V13.7872C0.813255 12.844 1.58062 12.0767 2.52375 12.0767H3.51779C3.57076 12.8551 4.21863 13.4609 5.00091 13.4609C5.78003 13.4609 6.43044 12.8538 6.48357 12.0767H7.47811C8.42129 12.0767 9.18861 12.8441 9.18861 13.7872V16.6846C9.18854 16.7472 9.16365 16.8072 9.11942 16.8514C9.07518 16.8956 9.0152 16.9205 8.95264 16.9206H8.03856V13.9674C8.03856 13.8055 7.90743 13.6744 7.7456 13.6744C7.58377 13.6744 7.45264 13.8055 7.45264 13.9674V16.9206H5.68449C5.52266 16.9206 5.39153 17.0517 5.39153 17.2136C5.39153 17.3754 5.52266 17.5065 5.68449 17.5065H8.95264C9.40587 17.5065 9.77453 17.1378 9.77453 16.6846V13.7872C9.77453 12.7802 9.12267 11.923 8.21895 11.6141C8.89159 11.3057 9.40044 10.9676 9.6975 10.7483C9.83322 10.6487 9.93122 10.5061 9.97555 10.3437C10.0199 10.1813 10.0079 10.0087 9.94164 9.85399C9.52497 8.87476 9.24748 7.97041 9.24748 6.74002C9.24748 4.39852 7.34249 2.49353 5.00095 2.49353C2.65945 2.49353 0.754467 4.39852 0.754467 6.74002C0.754467 7.97041 0.476975 8.87468 0.0602674 9.85399C-0.00605696 10.0087 -0.0180321 10.1813 0.0262932 10.3437C0.0706186 10.5061 0.168632 10.6487 0.304362 10.7483ZM5.90155 11.9495C5.90155 12.4469 5.50641 12.8683 5.01275 12.8747C4.50983 12.8813 4.10105 12.4745 4.10031 11.9758L4.10027 11.9743V11.109C4.68565 11.2991 5.31617 11.2991 5.90155 11.109V11.9495ZM5.00091 10.6659C3.72286 10.6659 2.66641 9.62564 2.66641 8.33134V6.7392H3.83278C4.4894 6.7392 5.07775 6.44311 5.4693 6.18156V6.38042C5.4693 6.68111 5.73742 6.91009 6.03296 6.86583C6.56993 6.7858 7.0125 6.47967 7.33546 6.20894V8.33138C7.33542 9.6233 6.28135 10.6659 5.00091 10.6659ZM0.599354 10.0834C1.04415 9.03816 1.34035 8.06959 1.34035 6.74006C1.34035 4.72159 2.98245 3.07949 5.00091 3.07949C7.01937 3.07949 8.66152 4.72159 8.66152 6.74006C8.66152 8.06963 8.95772 9.0382 9.40247 10.0834C9.4168 10.1169 9.41937 10.1543 9.40976 10.1894C9.40015 10.2245 9.37892 10.2554 9.34954 10.2769C8.92838 10.5877 8.04958 11.1558 6.86918 11.4908H6.48751V10.8437C7.34511 10.3344 7.92138 9.39908 7.92138 8.33134V5.85125C7.92138 5.48423 7.48417 5.28943 7.21159 5.53681L7.20449 5.54325C6.93336 5.7895 6.53318 6.15277 6.05522 6.26538V5.86524C6.05522 5.51079 5.64636 5.31236 5.36766 5.53189C5.07294 5.76395 4.48163 6.15327 3.83278 6.15327H2.6452C2.3338 6.15327 2.08049 6.40659 2.08049 6.71799V8.33134C2.08049 9.39908 2.65676 10.3344 3.51435 10.8437V11.4908H3.13268C1.95232 11.1558 1.07348 10.5878 0.652322 10.2769C0.622942 10.2554 0.601714 10.2245 0.592096 10.1894C0.582478 10.1543 0.585036 10.1169 0.599354 10.0834ZM19.707 14.6042C19.8689 14.6042 20 14.473 20 14.3112V13.7872C20 12.521 18.9698 11.4908 17.7036 11.4908H16.713V10.8437C17.489 10.3828 18.0347 9.57314 18.1315 8.63203H18.312C18.8769 8.63203 19.3364 8.17248 19.3364 7.60761C19.3364 7.4064 19.2779 7.21871 19.1773 7.06024V6.4444C19.1773 4.2659 17.4049 2.49357 15.2265 2.49357C13.048 2.49357 11.2756 4.2659 11.2756 6.4444V7.06032C11.1715 7.22388 11.1163 7.41377 11.1164 7.60765C11.1164 8.17252 11.576 8.63207 12.1409 8.63207H12.3215C12.4182 9.57318 12.9639 10.3828 13.7399 10.8437V11.4908H12.7493C11.483 11.4908 10.4529 12.521 10.4529 13.7872V16.6846C10.4529 17.1378 10.8216 17.5065 11.2748 17.5065H19.1782C19.6314 17.5065 20.0001 17.1378 20.0001 16.6846V15.6784C20.0001 15.5165 19.8689 15.3854 19.7071 15.3854C19.5453 15.3854 19.4141 15.5165 19.4141 15.6784V16.6846C19.4141 16.7472 19.3892 16.8072 19.345 16.8514C19.3007 16.8956 19.2407 16.9205 19.1782 16.9206H18.2641V13.9674C18.2641 13.8055 18.133 13.6744 17.9712 13.6744C17.8094 13.6744 17.6782 13.8055 17.6782 13.9674V16.9206H12.7747V13.9674C12.7747 13.8055 12.6436 13.6744 12.4817 13.6744C12.3199 13.6744 12.1888 13.8055 12.1888 13.9674V16.9206H11.2747C11.2121 16.9205 11.1521 16.8956 11.1079 16.8514C11.0637 16.8072 11.0388 16.7472 11.0387 16.6846V13.7872C11.0387 12.844 11.8061 12.0767 12.7492 12.0767H13.7433C13.7961 12.8542 14.4431 13.4609 15.2264 13.4609C16.0069 13.4609 16.656 12.8525 16.709 12.0767H17.7036C18.6467 12.0767 19.4141 12.8441 19.4141 13.7872V14.3112C19.4141 14.473 19.5452 14.6042 19.707 14.6042ZM18.7505 7.60765C18.7505 7.8494 18.5537 8.04615 18.312 8.04615H18.1468V7.16918H18.312C18.378 7.16918 18.4449 7.18528 18.5017 7.21297C18.5017 7.21297 18.7505 7.32266 18.7505 7.60765ZM12.3059 8.04611H12.1408C11.899 8.04611 11.7023 7.8494 11.7023 7.60761C11.7023 7.36574 11.9021 7.16911 12.1408 7.16911H12.3059V8.04611ZM12.3059 6.51858V6.58322H12.1408C12.0544 6.58322 11.954 6.59564 11.8615 6.62197V6.44436C11.8615 4.58894 13.371 3.07945 15.2264 3.07945C17.0818 3.07945 18.5913 4.58894 18.5913 6.44436V6.62197C18.4281 6.57572 18.312 6.58322 18.1469 6.58322C18.1469 5.88953 17.5532 5.60653 17.0889 5.74297C16.4688 5.92547 15.8431 6.05062 15.2024 6.05039C14.5749 6.05011 14.0057 5.93187 13.364 5.74297C12.8443 5.59024 12.3059 5.96933 12.3059 6.51858ZM16.127 11.9495C16.127 12.447 15.7318 12.8683 15.2382 12.8747C14.7347 12.8813 14.3265 12.4738 14.3258 11.9757L14.3257 11.9744V11.1091C14.9112 11.2989 15.5416 11.2989 16.127 11.1091V11.9495ZM15.2264 10.6659C13.9453 10.6659 12.8961 9.62498 12.8921 8.33872C12.8921 8.33618 12.892 8.33173 12.8919 8.32806V6.51862C12.8919 6.36296 13.0502 6.26331 13.1961 6.3046C13.1969 6.30483 13.1977 6.30491 13.1985 6.30514C14.5768 6.71084 15.6414 6.77974 17.2542 6.30514C17.3987 6.26249 17.5609 6.36073 17.5609 6.51862V8.32732C17.5608 8.33001 17.5607 8.33314 17.5607 8.33482L17.5608 8.33653C17.558 9.6413 16.4882 10.6659 15.2264 10.6659Z" fill="#434443" stroke="black" stroke-width="0.2"/>
</g>
<defs>
<clipPath id="clip0_243_2969">
<rect width="20" height="20" fill="white"/>
</clipPath>
</defs>
</svg>
