  <svg width="22" height="16" viewBox="0 0 22 16" fill="none"
                                                        xmlns="http://www.w3.org/2000/svg">
                                                        <g clip-path="url(#clip0_243_2648)">
                                                            <path
                                                                d="M21.3125 12.0568H20.9688V9.23864C20.9683 8.86508 20.8233 8.50695 20.5655 8.2428C20.3077 7.97865 19.9583 7.83004 19.5938 7.82955V1.84091C19.5933 1.46735 19.4483 1.10923 19.1905 0.845077C18.9327 0.580928 18.5833 0.432313 18.2188 0.431824H3.78125C3.41672 0.432313 3.06726 0.580928 2.80951 0.845077C2.55175 1.10923 2.40673 1.46735 2.40625 1.84091V7.82955C2.04172 7.83004 1.69226 7.97865 1.43451 8.2428C1.17675 8.50695 1.03173 8.86508 1.03125 9.23864V12.0568H0.6875C0.596332 12.0568 0.508898 12.0939 0.444432 12.16C0.379966 12.2261 0.34375 12.3157 0.34375 12.4091V13.8182C0.34375 13.9116 0.379966 14.0012 0.444432 14.0673C0.508898 14.1333 0.596332 14.1705 0.6875 14.1705H1.03125V15.5796C1.03125 15.673 1.06747 15.7626 1.13193 15.8286C1.1964 15.8947 1.28383 15.9318 1.375 15.9318H2.40625C2.4857 15.9319 2.5627 15.9037 2.62413 15.852C2.68556 15.8004 2.72761 15.7285 2.74312 15.6487L3.03187 14.1705H18.9681L19.2569 15.6487C19.2724 15.7285 19.3144 15.8004 19.3759 15.852C19.4373 15.9037 19.5143 15.9319 19.5938 15.9318H20.625C20.7162 15.9318 20.8036 15.8947 20.8681 15.8286C20.9325 15.7626 20.9688 15.673 20.9688 15.5796V14.1705H21.3125C21.4037 14.1705 21.4911 14.1333 21.5556 14.0673C21.62 14.0012 21.6562 13.9116 21.6562 13.8182V12.4091C21.6562 12.3157 21.62 12.2261 21.5556 12.16C21.4911 12.0939 21.4037 12.0568 21.3125 12.0568ZM3.09375 1.84091C3.09399 1.65413 3.1665 1.47507 3.29538 1.343C3.42426 1.21092 3.59899 1.13661 3.78125 1.13637H18.2188C18.401 1.13661 18.5757 1.21092 18.7046 1.343C18.8335 1.47507 18.906 1.65413 18.9062 1.84091V7.82955H18.2188V6.42046C18.2183 6.0469 18.0733 5.68877 17.8155 5.42462C17.5577 5.16047 17.2083 5.01186 16.8438 5.01137H12.7188C12.3542 5.01186 12.0048 5.16047 11.747 5.42462C11.4892 5.68877 11.3442 6.0469 11.3438 6.42046V7.82955H10.6562V6.42046C10.6558 6.0469 10.5108 5.68877 10.253 5.42462C9.99524 5.16047 9.64578 5.01186 9.28125 5.01137H5.15625C4.79172 5.01186 4.44226 5.16047 4.18451 5.42462C3.92675 5.68877 3.78173 6.0469 3.78125 6.42046V7.82955H3.09375V1.84091ZM17.5312 6.42046V7.82955H12.0312V6.42046C12.0315 6.23368 12.104 6.05462 12.2329 5.92254C12.3618 5.79047 12.5365 5.71616 12.7188 5.71591H16.8438C17.026 5.71616 17.2007 5.79047 17.3296 5.92254C17.4585 6.05462 17.531 6.23368 17.5312 6.42046ZM9.96875 6.42046V7.82955H4.46875V6.42046C4.46899 6.23368 4.5415 6.05462 4.67038 5.92254C4.79926 5.79047 4.97399 5.71616 5.15625 5.71591H9.28125C9.46351 5.71616 9.63824 5.79047 9.76712 5.92254C9.896 6.05462 9.96851 6.23368 9.96875 6.42046ZM1.71875 9.23864C1.71899 9.05186 1.7915 8.8728 1.92038 8.74072C2.04926 8.60865 2.22399 8.53434 2.40625 8.5341H19.5938C19.776 8.53434 19.9507 8.60865 20.0796 8.74072C20.2085 8.8728 20.281 9.05186 20.2812 9.23864V12.0568H1.71875V9.23864ZM2.12437 15.2273H1.71875V14.1705H2.33063L2.12437 15.2273ZM20.2812 15.2273H19.8756L19.6694 14.1705H20.2812V15.2273ZM20.9688 13.4659H1.03125V12.7614H20.9688V13.4659Z"
                                                                fill="black" />
                                                        </g>
                                                        <defs>
                                                            <clipPath id="clip0_243_2648">
                                                                <rect width="22" height="16" fill="white" />
                                                            </clipPath>
                                                        </defs>
                                                    </svg>