
<svg width="20" height="20" viewBox="0 0 20 20" fill="none" xmlns="http://www.w3.org/2000/svg">
<g clip-path="url(#clip0_243_2638)">
<path d="M0.625 17.8125H0.632812C0.709387 15.5991 1.56613 13.4841 3.05157 11.8414C4.537 10.1987 6.55544 9.13412 8.75 8.83594V8.125C8.75 7.79348 8.8817 7.47554 9.11612 7.24112C9.35054 7.0067 9.66848 6.875 10 6.875C10.3315 6.875 10.6495 7.0067 10.8839 7.24112C11.1183 7.47554 11.25 7.79348 11.25 8.125V8.83594C13.4446 9.13412 15.463 10.1987 16.9484 11.8414C18.4339 13.4841 19.2906 15.5991 19.3672 17.8125H19.375C19.4579 17.8125 19.5374 17.8454 19.596 17.904C19.6546 17.9626 19.6875 18.0421 19.6875 18.125V19.375C19.6875 19.4579 19.6546 19.5374 19.596 19.596C19.5374 19.6546 19.4579 19.6875 19.375 19.6875H0.625C0.54212 19.6875 0.462633 19.6546 0.40403 19.596C0.345425 19.5374 0.3125 19.4579 0.3125 19.375V18.125C0.3125 18.0421 0.345425 17.9626 0.40403 17.904C0.462633 17.8454 0.54212 17.8125 0.625 17.8125ZM10.625 8.125C10.625 7.95924 10.5592 7.80027 10.4419 7.68306C10.3247 7.56585 10.1658 7.5 10 7.5C9.83424 7.5 9.67527 7.56585 9.55806 7.68306C9.44085 7.80027 9.375 7.95924 9.375 8.125V8.77312C9.58187 8.75937 9.78969 8.75 10 8.75C10.2103 8.75 10.4181 8.75937 10.625 8.77312V8.125ZM10 9.375C7.73455 9.37792 5.55834 10.2584 3.92826 11.8317C2.29819 13.405 1.34106 15.5486 1.25781 17.8125H18.7422C18.6589 15.5486 17.7018 13.405 16.0717 11.8317C14.4417 10.2584 12.2655 9.37792 10 9.375ZM0.9375 19.0625H19.0625V18.4375H0.9375V19.0625Z" fill="black"/>
<path d="M18.0215 16.8253L17.4043 16.9247C17.1263 15.1632 16.2267 13.5595 14.8685 12.4039C13.5103 11.2484 11.7832 10.6173 9.99992 10.625V9.99999C11.9319 9.99181 13.8029 10.6756 15.2743 11.9276C16.7457 13.1796 17.7202 14.917 18.0215 16.8253ZM11.1584 6.34155L10.7165 6.78343L9.90836 5.9753C9.56681 5.63375 9.37493 5.17051 9.37493 4.68749C9.37493 4.20447 9.56681 3.74123 9.90836 3.39968L9.96211 3.34593C10.1864 3.12154 10.3124 2.81726 10.3124 2.49999C10.3124 2.18272 10.1864 1.87844 9.96211 1.65405L9.15398 0.845928L9.59586 0.404053L10.404 1.21218C10.7455 1.55373 10.9374 2.01697 10.9374 2.49999C10.9374 2.98301 10.7455 3.44625 10.404 3.7878L10.3502 3.84155C10.1259 4.06594 9.99993 4.37022 9.99993 4.68749C9.99993 5.00476 10.1259 5.30904 10.3502 5.53343L11.1584 6.34155ZM6.15836 8.21655L5.71648 8.65843L4.90836 7.8503C4.56681 7.50875 4.37493 7.04551 4.37493 6.56249C4.37493 6.07947 4.56681 5.61623 4.90836 5.27468L4.96211 5.22093C5.18641 4.99654 5.31242 4.69226 5.31242 4.37499C5.31242 4.05772 5.18641 3.75344 4.96211 3.52905L4.15398 2.72093L4.59586 2.27905L5.40398 3.08718C5.74553 3.42873 5.93741 3.89197 5.93741 4.37499C5.93741 4.85801 5.74553 5.32125 5.40398 5.6628L5.35023 5.71655C5.12593 5.94094 4.99993 6.24522 4.99993 6.56249C4.99993 6.87976 5.12593 7.18404 5.35023 7.40843L6.15836 8.21655ZM15.8459 8.21655L15.404 8.65843L14.5959 7.8503C14.2543 7.50875 14.0624 7.04551 14.0624 6.56249C14.0624 6.07947 14.2543 5.61623 14.5959 5.27468L14.6496 5.22093C14.8739 4.99654 14.9999 4.69226 14.9999 4.37499C14.9999 4.05772 14.8739 3.75344 14.6496 3.52905L13.8415 2.72093L14.2834 2.27905L15.0915 3.08718C15.433 3.42873 15.6249 3.89197 15.6249 4.37499C15.6249 4.85801 15.433 5.32125 15.0915 5.6628L15.0377 5.71655C14.8134 5.94094 14.6874 6.24522 14.6874 6.56249C14.6874 6.87976 14.8134 7.18404 15.0377 7.40843L15.8459 8.21655Z" fill="black"/>
</g>
<defs>
<clipPath id="clip0_243_2638">
<rect width="20" height="20" fill="white" transform="matrix(-1 0 0 1 20 0)"/>
</clipPath>
</defs>
</svg>
