 <svg xmlns="http://www.w3.org/2000/svg" width="40" height="41" viewBox="0 0 40 41" fill="none">
                            <g clip-path="url(#clip0_232_322)">
                                <path
                                    d="M28.1287 23.845C27.5555 23.2481 26.8641 22.929 26.1313 22.929C25.4044 22.929 24.7071 23.2422 24.1102 23.8391L22.2428 25.7006C22.0891 25.6179 21.9355 25.541 21.7877 25.4642C21.575 25.3579 21.3741 25.2574 21.2027 25.151C19.4534 24.04 17.8638 22.5922 16.3391 20.7188C15.6004 19.7851 15.104 18.9991 14.7435 18.2013C15.2281 17.7581 15.6772 17.2972 16.1145 16.8539C16.28 16.6885 16.4455 16.5171 16.6109 16.3516C17.8519 15.1106 17.8519 13.5032 16.6109 12.2622L14.9976 10.6489C14.8144 10.4657 14.6253 10.2766 14.448 10.0875C14.0934 9.72107 13.7211 9.34286 13.337 8.98828C12.7638 8.42096 12.0783 8.11957 11.3573 8.11957C10.6363 8.11957 9.939 8.42096 9.34804 8.98828L9.33622 9.0001L7.32696 11.0271C6.57053 11.7835 6.13913 12.7054 6.04458 13.7751C5.90275 15.5007 6.41098 17.1081 6.80101 18.16C7.75836 20.7425 9.18848 23.1358 11.3218 25.7006C13.9102 28.7913 17.0246 31.232 20.5822 32.9517C21.9414 33.5958 23.7556 34.3582 25.7826 34.4882C25.9067 34.4941 26.0367 34.5 26.1549 34.5C27.52 34.5 28.6665 34.0095 29.5648 33.0344C29.5707 33.0226 29.5825 33.0167 29.5884 33.0049C29.8957 32.6326 30.2503 32.2957 30.6226 31.9352C30.8767 31.6929 31.1367 31.4388 31.3908 31.1729C31.9759 30.5642 32.2832 29.855 32.2832 29.1282C32.2832 28.3954 31.97 27.6921 31.3731 27.1012L28.1287 23.845ZM30.2444 30.0678C30.2384 30.0678 30.2384 30.0737 30.2444 30.0678C30.0139 30.316 29.7775 30.5406 29.5234 30.7888C29.1393 31.1552 28.7492 31.5393 28.3828 31.9707C27.786 32.6089 27.0827 32.9103 26.1608 32.9103C26.0722 32.9103 25.9776 32.9103 25.889 32.9044C24.1338 32.7921 22.5028 32.1066 21.2795 31.5216C17.9347 29.9023 14.9976 27.6035 12.557 24.6901C10.5418 22.2612 9.19439 20.0156 8.30204 17.6045C7.75245 16.133 7.55153 14.9865 7.64017 13.9051C7.69927 13.2136 7.9652 12.6404 8.45569 12.1499L10.4709 10.1347C10.7604 9.8629 11.0677 9.71516 11.3691 9.71516C11.7414 9.71516 12.0428 9.93973 12.2319 10.1288L12.2497 10.1466C12.6101 10.4834 12.9529 10.8321 13.3134 11.2044C13.4966 11.3935 13.6857 11.5826 13.8748 11.7776L15.4881 13.3909C16.1145 14.0173 16.1145 14.5965 15.4881 15.2229C15.3167 15.3943 15.1513 15.5657 14.9799 15.7311C14.4835 16.2394 14.0107 16.7121 13.4966 17.1731C13.4848 17.1849 13.4729 17.1908 13.467 17.2026C12.9588 17.7108 13.0534 18.2072 13.1597 18.5441L13.1775 18.5973C13.597 19.6137 14.188 20.5711 15.0863 21.7116L15.0922 21.7175C16.7232 23.7268 18.4429 25.2928 20.3399 26.4925C20.5822 26.6461 20.8304 26.7702 21.0668 26.8884C21.2795 26.9948 21.4804 27.0953 21.6518 27.2016C21.6754 27.2135 21.6991 27.2312 21.7227 27.243C21.9237 27.3435 22.1128 27.3908 22.3078 27.3908C22.7983 27.3908 23.1056 27.0835 23.206 26.983L25.2271 24.9619C25.428 24.761 25.7472 24.5187 26.1195 24.5187C26.4859 24.5187 26.7872 24.7492 26.9704 24.9501L26.9823 24.9619L30.2384 28.2181C30.8471 28.8209 30.8471 29.4414 30.2444 30.0678ZM21.1318 13.1605C22.6801 13.4205 24.0866 14.1533 25.2094 15.2761C26.3322 16.3989 27.0591 17.8054 27.325 19.3537C27.39 19.7437 27.7269 20.0156 28.111 20.0156C28.1583 20.0156 28.1996 20.0097 28.2469 20.0038C28.6842 19.9328 28.9738 19.5192 28.9029 19.0819C28.5838 17.2085 27.6973 15.5007 26.344 14.1474C24.9907 12.7941 23.2829 11.9076 21.4095 11.5885C20.9722 11.5176 20.5644 11.8072 20.4876 12.2386C20.4108 12.67 20.6945 13.0895 21.1318 13.1605ZM33.9674 18.8514C33.4414 15.7666 31.9877 12.9595 29.7539 10.7257C27.52 8.49188 24.713 7.03812 21.6282 6.51216C21.1968 6.43534 20.789 6.73082 20.7122 7.16222C20.6413 7.59953 20.9308 8.00729 21.3682 8.08411C24.122 8.55097 26.6336 9.85699 28.631 11.8485C30.6285 13.846 31.9286 16.3575 32.3955 19.1114C32.4605 19.5014 32.7973 19.7733 33.1814 19.7733C33.2287 19.7733 33.2701 19.7674 33.3173 19.7615C33.7487 19.6965 34.0442 19.2828 33.9674 18.8514Z"
                                    fill="#095763" />
                            </g>
                            <defs>
                                <clipPath id="clip0_232_322">
                                    <rect width="28" height="28" fill="white" transform="translate(6 6.5)" />
                                </clipPath>
                            </defs>
                        </svg>