 <svg width="40" height="41" viewBox="0 0 40 41" fill="none" xmlns="http://www.w3.org/2000/svg">
                            <path
                                d="M26.3596 9.16675H7.5767C6.70727 9.16675 6 9.87402 6 10.7434V22.0121C6 22.8815 6.70727 23.5888 7.5767 23.5888H8.79465V27.7839C8.79469 27.9145 8.83345 28.0422 8.90603 28.1508C8.97862 28.2594 9.08177 28.344 9.20245 28.394C9.32313 28.444 9.45592 28.4571 9.58404 28.4316C9.71216 28.4062 9.82985 28.3433 9.92225 28.251L14.5844 23.5889H15.5198C15.8846 23.5889 16.1803 23.2932 16.1803 22.9283C16.1803 22.5635 15.8845 22.2678 15.5198 22.2678C15.5198 22.2678 14.2789 22.2686 14.266 22.27C14.1067 22.2804 13.9566 22.3484 13.8437 22.4612L10.1157 26.1892C10.1157 26.1892 10.1145 22.8866 10.1124 22.8694C10.0826 22.5322 9.79975 22.2678 9.45483 22.2678H7.5767C7.50893 22.2677 7.44395 22.2407 7.39603 22.1928C7.34811 22.1449 7.32116 22.0799 7.32109 22.0122V10.7434C7.32116 10.6756 7.34811 10.6106 7.39603 10.5627C7.44395 10.5148 7.50893 10.4879 7.5767 10.4878H26.3596C26.4274 10.4879 26.4924 10.5148 26.5403 10.5627C26.5882 10.6106 26.6152 10.6756 26.6153 10.7434V15.0667C26.6153 15.4315 26.9111 15.7272 27.2758 15.7272C27.6405 15.7272 27.9363 15.4315 27.9363 15.0667V10.7434C27.9363 9.87402 27.229 9.16675 26.3596 9.16675Z"
                                fill="#095763" />
                            <path
                                d="M32.4236 17.2462H19.2759C18.4065 17.2462 17.6992 17.9535 17.6992 18.8229V26.5103C17.6992 27.3797 18.4065 28.087 19.2759 28.087H27.5072L30.842 31.4219C30.9344 31.5143 31.0521 31.5772 31.1802 31.6027C31.3084 31.6282 31.4412 31.6151 31.5619 31.5651C31.6826 31.5151 31.7857 31.4304 31.8583 31.3218C31.9309 31.2132 31.9696 31.0854 31.9696 30.9548V28.087H32.4236C33.2929 28.087 34.0003 27.3797 34.0003 26.5103V18.8229C34.0003 17.9535 33.2931 17.2462 32.4236 17.2462ZM32.6793 26.5103C32.6792 26.5781 32.6523 26.6431 32.6043 26.691C32.5564 26.7389 32.4915 26.7659 32.4237 26.766H31.3094C30.9618 26.766 30.6775 27.0346 30.6514 27.3756C30.6497 27.39 30.6486 29.3602 30.6486 29.3602L28.2504 26.9618C28.2479 26.9593 28.2452 26.957 28.2427 26.9545C28.2341 26.946 28.2252 26.9379 28.216 26.9301C28.0959 26.8243 27.9413 26.7659 27.7812 26.7659H19.2759C19.2081 26.7658 19.1432 26.7389 19.0953 26.691C19.0473 26.643 19.0204 26.5781 19.0203 26.5103V18.8229C19.0204 18.7551 19.0473 18.6901 19.0953 18.6422C19.1432 18.5943 19.2081 18.5673 19.2759 18.5672H32.4237C32.4915 18.5673 32.5564 18.5943 32.6043 18.6422C32.6523 18.6901 32.6792 18.7551 32.6793 18.8229V26.5103Z"
                                fill="#095763" />
                            <path
                                d="M25.8496 22.0061C25.485 22.0061 25.1891 22.302 25.1891 22.6666C25.1891 23.0312 25.485 23.3271 25.8496 23.3271C26.2142 23.3271 26.5101 23.0312 26.5101 22.6666C26.5101 22.302 26.2142 22.0061 25.8496 22.0061ZM22.9789 13.5339H10.9574C10.5926 13.5339 10.2969 13.8296 10.2969 14.1945C10.2969 14.5593 10.5927 14.855 10.9574 14.855H22.9789C23.3437 14.855 23.6394 14.5593 23.6394 14.1945C23.6394 13.8296 23.3437 13.5339 22.9789 13.5339ZM15.5197 17.901H10.9574C10.5926 17.901 10.2969 18.1967 10.2969 18.5615C10.2969 18.9263 10.5927 19.222 10.9574 19.222H15.5197C15.8845 19.222 16.1802 18.9263 16.1802 18.5615C16.1802 18.1967 15.8845 17.901 15.5197 17.901ZM22.7801 22.0061C22.4156 22.0061 22.1196 22.302 22.1196 22.6666C22.1196 23.0312 22.4156 23.3271 22.7801 23.3271C23.1448 23.3271 23.4407 23.0312 23.4407 22.6666C23.4407 22.302 23.1448 22.0061 22.7801 22.0061ZM28.9184 22.0061C28.5538 22.0061 28.2579 22.302 28.2579 22.6666C28.2579 23.0312 28.5538 23.3271 28.9184 23.3271C29.283 23.3271 29.5789 23.0312 29.5789 22.6666C29.5789 22.302 29.283 22.0061 28.9184 22.0061Z"
                                fill="#095763" />
                        </svg>