<svg width="24" height="24" viewBox="0 0 24 24" fill="none" xmlns="http://www.w3.org/2000/svg">
<path d="M8.4465 12.0986C7.73295 12.6993 6.60576 12.6993 5.89101 12.0986C5.83992 12.0644 5.77799 12.0501 5.71707 12.0587C5.65615 12.0673 5.60053 12.098 5.56086 12.145C5.52119 12.192 5.50025 12.252 5.50206 12.3135C5.50387 12.375 5.5283 12.4336 5.57067 12.4782C6.01813 12.8563 6.58498 13.0636 7.17075 13.0636C7.75652 13.0636 8.32338 12.8563 8.77084 12.4782C8.79697 12.4574 8.81866 12.4316 8.83462 12.4022C8.85058 12.3728 8.8605 12.3406 8.86378 12.3073C8.86706 12.2741 8.86363 12.2405 8.85371 12.2086C8.84378 12.1767 8.82756 12.1471 8.806 12.1216C8.78444 12.0961 8.75798 12.0751 8.72818 12.06C8.69838 12.0449 8.66586 12.0359 8.63252 12.0336C8.59919 12.0312 8.56573 12.0356 8.53412 12.0465C8.50251 12.0573 8.4734 12.0743 8.4485 12.0966L8.4465 12.0986ZM17.7355 12.1146C17.0211 12.7177 15.8935 12.7177 15.1804 12.1146C15.1295 12.0741 15.0649 12.055 15.0002 12.0614C14.9354 12.0678 14.8758 12.0991 14.8338 12.1488C14.7918 12.1985 14.7709 12.2626 14.7754 12.3275C14.7799 12.3923 14.8096 12.4529 14.858 12.4962C15.3053 12.8745 15.8721 13.0821 16.4579 13.0821C17.0437 13.0821 17.6106 12.8745 18.0578 12.4962C18.1063 12.4529 18.1359 12.3923 18.1405 12.3275C18.145 12.2626 18.124 12.1985 18.0821 12.1488C18.0401 12.0991 17.9804 12.0678 17.9157 12.0614C17.851 12.055 17.7863 12.0741 17.7355 12.1146Z" fill="#434443" stroke="black" stroke-width="0.2"/>
<path d="M20.2823 11.1958C20.2147 11.1958 20.1562 11.199 20.1034 11.2034C20.1086 11.1389 20.1118 11.0744 20.1134 11.0092L20.1274 10.9735C20.2912 10.5571 20.4765 10.0854 20.4765 9.57925C20.4765 7.43819 18.7804 5.88376 16.4431 5.88376C14.1207 5.88376 12.4389 7.43819 12.4389 9.57925C12.4389 10.0902 12.6023 10.5623 12.7732 11.0031C12.7732 11.0696 12.778 11.1353 12.7832 11.201C12.7376 11.1978 12.6879 11.1958 12.6331 11.1958C12.006 11.1958 10.8444 11.4552 10.9225 13.3949L10.9337 13.3969C11.0803 13.4093 11.2172 13.4153 11.3457 13.4153C12.507 13.4153 12.9474 12.93 13.094 12.4198C13.3114 12.9012 13.6297 13.3303 14.0274 13.678C13.3171 14.1283 12.7229 14.7396 12.2927 15.4622C12.2807 15.4732 12.2697 15.4853 12.2599 15.4983C12.2537 15.5111 12.2487 15.5245 12.2451 15.5383C12.0639 15.8659 11.9189 16.2121 11.8126 16.571C11.7064 16.2135 11.5616 15.8686 11.381 15.5423C11.3772 15.5274 11.3721 15.5127 11.3658 15.4987C11.3553 15.4841 11.3434 15.4707 11.3301 15.4586C10.8947 14.7314 10.2929 14.1179 9.57427 13.6684C10.3056 13.0337 10.7562 12.1354 10.8276 11.1697C10.8276 11.1669 10.832 11.1653 10.8328 11.1621C11.5243 9.11997 11.3609 7.79457 11.3533 7.73891V7.7257C11.2276 7.05539 10.7671 6.4952 10.0219 6.10559C8.62366 5.37562 6.66801 5.41446 5.65734 5.86934C4.31993 6.46997 3.53511 5.89377 3.50307 5.86934C3.46754 5.84159 3.42515 5.82397 3.38042 5.81835C3.33568 5.81273 3.29026 5.81933 3.24896 5.83743C3.20767 5.85553 3.17204 5.88447 3.14586 5.92118C3.11968 5.95788 3.10392 6.00099 3.10025 6.04593L2.98853 7.4414C2.98012 7.50907 2.79152 9.12077 3.48265 11.1613C3.48746 11.1761 3.50067 11.1853 3.50828 11.199C3.58704 12.1524 4.03538 13.0373 4.75759 13.6648C4.03896 14.1165 3.43797 14.7326 3.00415 15.4622C2.99162 15.4731 2.98034 15.4853 2.97051 15.4987C2.96457 15.5116 2.95974 15.525 2.9561 15.5387C2.60693 16.1622 2.35226 16.9118 2.27818 17.8267C2.2755 17.8594 2.27928 17.8924 2.28932 17.9236C2.29935 17.9549 2.31545 17.9838 2.33668 18.0088C2.35791 18.0339 2.38387 18.0545 2.41306 18.0695C2.44225 18.0844 2.47411 18.0935 2.50682 18.0962H2.52684C2.58956 18.0961 2.64995 18.0725 2.69607 18.03C2.7422 17.9875 2.77069 17.9293 2.77591 17.8668C2.82427 17.2118 2.998 16.5722 3.28765 15.9828L4.40042 16.6523V17.8484C4.40042 17.9146 4.42674 17.9782 4.4736 18.025C4.52046 18.0719 4.58401 18.0982 4.65028 18.0982C4.71655 18.0982 4.7801 18.0719 4.82696 18.025C4.87382 17.9782 4.90014 17.9146 4.90014 17.8484V16.5101C4.90026 16.4671 4.88926 16.4248 4.86822 16.3873C4.84717 16.3497 4.81679 16.3183 4.78002 16.2959L3.5315 15.5459C3.94732 14.9023 4.50841 14.3652 5.16963 13.9779C5.76123 14.3648 6.45242 14.5716 7.1593 14.5733C7.86618 14.575 8.55835 14.3715 9.15182 13.9875C9.81281 14.3753 10.3754 14.9104 10.796 15.5511L9.55825 16.2959C9.52145 16.3182 9.49104 16.3497 9.47 16.3872C9.44895 16.4248 9.43797 16.4671 9.43812 16.5101V17.8472C9.44071 17.9116 9.46814 17.9726 9.51468 18.0173C9.56122 18.062 9.62325 18.087 9.68779 18.087C9.75232 18.087 9.81436 18.062 9.86089 18.0173C9.90743 17.9726 9.93487 17.9116 9.93745 17.8472V16.6511L11.0438 15.9852C11.3373 16.5728 11.5131 17.2121 11.5612 17.8672C11.5649 17.909 11.5794 17.9491 11.603 17.9837C11.6267 18.0184 11.6589 18.0463 11.6965 18.065L11.7049 18.0698C11.7261 18.0791 11.7485 18.0856 11.7714 18.089C11.7802 18.089 11.7874 18.0954 11.7962 18.0962H11.8298C11.8362 18.0962 11.8415 18.0918 11.8475 18.091C11.904 18.0844 11.9566 18.0586 11.9963 18.0178C12.0361 17.9771 12.0606 17.9239 12.0657 17.8672C12.1143 17.2121 12.288 16.5725 12.5774 15.9828L13.6906 16.6527V17.8488C13.6906 17.915 13.7169 17.9786 13.7638 18.0254C13.8106 18.0723 13.8742 18.0986 13.9405 18.0986C14.0067 18.0986 14.0703 18.0723 14.1171 18.0254C14.164 17.9786 14.1903 17.915 14.1903 17.8488V16.5101C14.1904 16.4671 14.1793 16.4248 14.1583 16.3873C14.1373 16.3498 14.1069 16.3183 14.0702 16.2959L12.8233 15.5455C13.2339 14.9091 13.7869 14.377 14.4386 13.9911C15.0345 14.3823 15.7318 14.5908 16.4447 14.5908C17.1576 14.5908 17.8549 14.3823 18.4508 13.9911C19.1085 14.3784 19.6683 14.9118 20.0869 15.5499L18.8492 16.2947C18.8124 16.317 18.782 16.3485 18.761 16.386C18.7399 16.4236 18.729 16.4659 18.7291 16.5089V17.846C18.7291 17.9122 18.7554 17.9758 18.8023 18.0226C18.8491 18.0695 18.9127 18.0958 18.979 18.0958C19.0452 18.0958 19.1088 18.0695 19.1557 18.0226C19.2025 17.9758 19.2288 17.9122 19.2288 17.846V16.6511L20.3352 15.9852C20.6284 16.5729 20.804 17.2122 20.8521 17.8672C20.8575 17.9332 20.8888 17.9945 20.9392 18.0374C20.9897 18.0804 21.0552 18.1015 21.1212 18.0962C21.1873 18.0909 21.2485 18.0596 21.2915 18.0091C21.3344 17.9587 21.3556 17.8932 21.3503 17.8271C21.2766 16.9126 21.0231 16.1646 20.6736 15.5447C20.6697 15.5296 20.6645 15.5148 20.6579 15.5007C20.6475 15.4861 20.6356 15.4727 20.6223 15.4606C20.1883 14.7339 19.5882 14.1203 18.8713 13.6704C19.2754 13.3153 19.5969 12.8762 19.8134 12.3838C19.9488 12.9068 20.3836 13.4153 21.5729 13.4153C21.7014 13.4153 21.8384 13.4093 21.9849 13.3969L21.9961 13.3949C22.071 11.4552 20.9094 11.1958 20.2823 11.1958ZM12.5034 12.5215C12.324 12.7702 11.9632 12.9019 11.4298 12.9148C11.4663 12.5119 11.5816 12.2076 11.7742 12.007C12.0216 11.7495 12.3776 11.6951 12.6323 11.6951H12.6423C12.6771 11.9473 12.6735 12.2861 12.5034 12.5215ZM3.48545 7.49385L3.56794 6.46637C4.0032 6.64376 4.79964 6.80353 5.86276 6.32502C6.77091 5.91579 8.566 5.90818 9.79049 6.54846C10.4011 6.86879 10.7611 7.29124 10.8608 7.80939C10.8704 7.89628 10.9697 8.93577 10.5121 10.523L9.50219 9.08152C9.46987 9.03546 9.42297 9.00164 9.36906 8.98551C9.31515 8.96938 9.25738 8.97189 9.20508 8.99263C9.19427 8.99704 8.12394 9.42068 7.14651 9.42829C6.19711 9.42068 5.12358 8.99704 5.11277 8.99263C5.06045 8.97196 5.0027 8.96949 4.94881 8.98561C4.89492 9.00174 4.84802 9.03552 4.81565 9.08152L3.80819 10.5206C3.33249 8.82285 3.48265 7.51668 3.48545 7.49385ZM4.0036 11.1121L5.11397 9.52599C5.48436 9.65573 6.34286 9.92201 7.17454 9.92842C7.98139 9.92201 8.83389 9.65613 9.20307 9.52599L10.3315 11.1377C10.27 11.9366 9.90842 12.6827 9.31939 13.226C8.73035 13.7692 7.95752 14.0694 7.15622 14.0661C6.35492 14.0629 5.58454 13.7565 4.99993 13.2085C4.41531 12.6605 4.05978 11.9115 4.0048 11.1121H4.0036ZM16.4431 6.38348C18.4909 6.38348 19.9772 7.7277 19.9772 9.57925C19.9772 9.93963 19.8535 10.3 19.7185 10.6476C18.7976 10.3701 17.0758 9.66694 16.699 8.21822C16.6851 8.16497 16.654 8.11779 16.6105 8.08398C16.5671 8.05018 16.5138 8.03163 16.4587 8.03122H16.4447C16.3897 8.03161 16.3364 8.0501 16.293 8.08382C16.2495 8.11755 16.2184 8.16464 16.2044 8.21782C15.8293 9.65653 14.0998 10.3629 13.1729 10.6432C13.0467 10.3 12.9406 9.94083 12.9406 9.57925C12.9378 7.7277 14.4118 6.38348 16.4431 6.38348ZM16.4431 14.092C15.6386 14.0904 14.8648 13.7836 14.2776 13.2337C13.6905 12.6837 13.3339 11.9315 13.2798 11.1289C14.2944 10.8302 15.7912 10.1979 16.4507 8.94818C17.1086 10.2059 18.5986 10.8362 19.6088 11.1329C19.5536 11.9352 19.1962 12.6867 18.6087 13.2359C18.0212 13.785 17.2473 14.091 16.4431 14.092ZM20.4109 12.5215C20.2407 12.2861 20.2375 11.9465 20.2723 11.6951H20.2823C20.537 11.6951 20.8926 11.7495 21.1404 12.007C21.333 12.2072 21.448 12.5119 21.4844 12.9148C20.9514 12.9019 20.5903 12.7702 20.4109 12.5215Z" fill="#434443" stroke="black" stroke-width="0.2"/>
</svg>
