<svg width="59" height="62" viewBox="0 0 59 62" fill="none" xmlns="http://www.w3.org/2000/svg">
<mask id="mask0_228_739" style="mask-type:luminance" maskUnits="userSpaceOnUse" x="0" y="-1" width="59" height="63">
<path d="M58.25 60.731V0.749844H0.75V60.731H58.25Z" fill="white" stroke="white" stroke-width="1.5"/>
</mask>
<g mask="url(#mask0_228_739)">
<path d="M5.78085 10.2087C5.69683 10.1209 5.61743 10.0285 5.543 9.93188L0.916342 31.1704C0.623185 32.516 1.60464 33.7969 2.9288 33.7969H5.89009V10.3225L5.78085 10.2087Z" stroke="white" stroke-width="1.5" stroke-miterlimit="10" stroke-linecap="round" stroke-linejoin="round"/>
<path d="M5.89014 10.3227V33.797C5.89014 34.5159 6.44948 35.0986 7.13928 35.0986H9.01172C9.70163 35.0986 10.261 34.5159 10.261 33.797V14.8772L5.89014 10.3227Z" stroke="white" stroke-width="1.5" stroke-miterlimit="10" stroke-linecap="round" stroke-linejoin="round"/>
<path d="M12.1037 16.7975L10.261 14.8771V33.7969H13.2223C14.5463 33.7969 15.5279 32.516 15.2347 31.1704L12.1037 16.7975Z" stroke="white" stroke-width="1.5" stroke-miterlimit="10" stroke-linecap="round" stroke-linejoin="round"/>
<path d="M31.441 11.3189C31.3907 11.5226 31.3012 11.6112 31.2873 11.6208C31.2873 11.6208 31.2788 11.6232 31.2571 11.6232C29.4677 11.6232 28.0136 13.1176 27.9796 14.9742C27.9448 16.9316 29.5342 18.4976 31.4116 18.4524C34.1785 18.3889 36.5428 16.5853 37.538 13.8479L32.3473 8.43892C31.9085 9.43559 31.6674 10.4084 31.441 11.3189Z" stroke="white" stroke-width="1.5" stroke-miterlimit="10" stroke-linecap="round" stroke-linejoin="round"/>
<path d="M37.5379 13.8479L32.3472 8.439C32.7536 7.51463 33.3323 6.56851 34.2263 5.63705C34.9234 4.90925 35.6968 4.26538 36.5319 3.71757L40.9909 8.36407C39.7716 8.97108 38.7487 10.042 38.2109 11.5203C38.0818 11.8769 37.9582 12.3439 37.7882 13.0282C37.7199 13.3062 37.6363 13.5799 37.5379 13.8479Z" stroke="white" stroke-width="1.5" stroke-miterlimit="10" stroke-linecap="round" stroke-linejoin="round"/>
<path d="M45.3138 8.1104V1.70628C42.3019 1.30365 39.1827 1.97442 36.5317 3.71751L40.9907 8.36401C42.3212 7.70225 43.8858 7.5919 45.3138 8.1104Z" stroke="white" stroke-width="1.5" stroke-miterlimit="10" stroke-linecap="round" stroke-linejoin="round"/>
<path d="M53.6262 6.29075L48.9903 11.1216L47.4449 9.51131C46.8137 8.85351 46.0835 8.3906 45.314 8.11033V1.70621C48.1264 2.08146 50.8445 3.39225 52.9996 5.63776L53.6262 6.29075Z" stroke="white" stroke-width="1.5" stroke-miterlimit="10" stroke-linecap="round" stroke-linejoin="round"/>
<path d="M51.3607 14.9524H58.0163C57.6378 11.9927 56.3536 9.13282 54.181 6.86871L53.6261 6.29064L48.9902 11.1215L49.582 11.7382C50.4369 12.6271 51.0506 13.7361 51.3607 14.9524Z" stroke="white" stroke-width="1.5" stroke-miterlimit="10" stroke-linecap="round" stroke-linejoin="round"/>
<path d="M56.1279 24.1377L51.241 19.0451C51.6689 17.7262 51.7052 16.2972 51.3607 14.9526H58.0163C58.4211 18.1023 57.7984 21.3648 56.1279 24.1377Z" stroke="white" stroke-width="1.5" stroke-miterlimit="10" stroke-linecap="round" stroke-linejoin="round"/>
<path d="M51.241 19.0451C50.9242 20.0238 50.3997 20.9154 49.7066 21.6537C49.391 21.9909 49.0436 22.2941 48.6697 22.5588V30.0305C50.8029 29.3775 52.7546 28.165 54.3601 26.4661C55.0288 25.7591 55.6216 24.9784 56.128 24.1377L51.241 19.0451Z" stroke="white" stroke-width="1.5" stroke-miterlimit="10" stroke-linecap="round" stroke-linejoin="round"/>
<path d="M48.6696 30.0305C47.4619 30.4032 46.1947 30.5949 44.899 30.5957L42.8831 30.5949V23.764L44.899 23.7633C46.2635 23.7633 47.5654 23.3421 48.6696 22.5587V30.0305Z" stroke="white" stroke-width="1.5" stroke-miterlimit="10" stroke-linecap="round" stroke-linejoin="round"/>
<path d="M37.0959 30.5947H42.8831V23.7638H37.0959V30.5947Z" stroke="white" stroke-width="1.5" stroke-miterlimit="10" stroke-linecap="round" stroke-linejoin="round"/>
<path d="M37.096 30.5951H37.0188C36.4624 30.5952 35.9115 30.7095 35.3975 30.9315C34.8835 31.1535 34.4165 31.4789 34.0232 31.889L33.9406 31.9751L29.3047 27.1443L29.3873 27.0582C30.3895 26.0136 31.5794 25.185 32.889 24.6197C34.1985 24.0544 35.6021 23.7635 37.0196 23.7635L37.096 23.7642V30.5951Z" stroke="white" stroke-width="1.5" stroke-miterlimit="10" stroke-linecap="round" stroke-linejoin="round"/>
<path d="M16.8647 12.0971L10.4168 5.37798C9.13665 4.044 7.06104 4.044 5.78091 5.37798C4.50077 6.71195 4.50077 8.87483 5.78091 10.2088L25.6686 30.9329L29.3873 27.0579C29.694 26.7385 30.0188 26.4386 30.3601 26.1599L19.3092 14.6443" stroke="white" stroke-width="1.5" stroke-miterlimit="10" stroke-linecap="round" stroke-linejoin="round"/>
<path d="M47.4052 53.5834L52.4646 58.8555C53.1362 59.5553 54.2252 59.5553 54.8967 58.8555L57.1006 56.5588C57.7722 55.8591 57.7722 54.7245 57.1006 54.0247L35.0851 31.0833C34.6931 31.2927 34.3349 31.5644 34.0232 31.8887L30.3047 35.7636L44.9608 51.0361" stroke="white" stroke-width="1.5" stroke-miterlimit="10" stroke-linecap="round" stroke-linejoin="round"/>
<path d="M29.3047 27.1438L24.7136 31.928L29.3495 36.7588L33.9406 31.9747L29.3047 27.1438Z" stroke="white" stroke-width="1.5" stroke-miterlimit="10" stroke-linecap="round" stroke-linejoin="round"/>
<path d="M29.3492 36.7591L24.7582 41.5432L20.1223 36.7124L24.7134 31.9283L29.3492 36.7591Z" stroke="white" stroke-width="1.5" stroke-miterlimit="10" stroke-linecap="round" stroke-linejoin="round"/>
<path d="M20.1223 36.7123L15.5312 41.4964L20.1671 46.3274L24.7582 41.5432L20.1223 36.7123Z" stroke="white" stroke-width="1.5" stroke-miterlimit="10" stroke-linecap="round" stroke-linejoin="round"/>
<path d="M20.1672 46.3275L15.5762 51.1116L10.9402 46.2807L15.5314 41.4966L20.1672 46.3275Z" stroke="white" stroke-width="1.5" stroke-miterlimit="10" stroke-linecap="round" stroke-linejoin="round"/>
<path d="M10.9857 55.8948L15.576 51.1115L10.9401 46.2805L6.34985 51.0639L10.9857 55.8948Z" stroke="white" stroke-width="1.5" stroke-miterlimit="10" stroke-linecap="round" stroke-linejoin="round"/>
<path d="M10.9858 55.8949L7.6912 59.328C6.9749 60.0744 5.81357 60.0735 5.09808 59.328L3.0552 57.1992C2.33902 56.4529 2.33902 55.2435 3.0552 54.4971L6.34987 51.064L10.9858 55.8949Z" stroke="white" stroke-width="1.5" stroke-miterlimit="10" stroke-linecap="round" stroke-linejoin="round"/>
</g>
</svg>
