
<svg width="24" height="24" viewBox="0 0 24 24" fill="none" xmlns="http://www.w3.org/2000/svg">
<circle cx="12" cy="12" r="9.25" stroke="#434443" stroke-width="1.2"/>
<path d="M11.4643 2.74976C9.27487 2.74976 7.5 6.89112 7.5 11.9998C7.5 17.1084 9.27487 21.2498 11.4643 21.2498" stroke="#434443" stroke-width="1.2" stroke-linecap="round"/>
<path d="M12.5006 2.74976C14.69 2.74976 16.4648 6.89112 16.4648 11.9998C16.4648 17.1084 14.69 21.2498 12.5006 21.2498" stroke="#434443" stroke-width="1.2" stroke-linecap="round"/>
<path d="M2.75 12.5357C2.75 14.7251 6.89137 16.5 12 16.5C17.1086 16.5 21.25 14.7251 21.25 12.5357" stroke="#434443" stroke-width="1.2" stroke-linecap="round"/>
<path d="M2.75 11.5001C2.75 9.31064 6.89137 7.53577 12 7.53577C17.1086 7.53577 21.25 9.31064 21.25 11.5001" stroke="#434443" stroke-width="1.2" stroke-linecap="round"/>
</svg>
