<svg xmlns="http://www.w3.org/2000/svg" width="32" height="32" viewBox="0 0 32 32" fill="none">
<path d="M28.9996 15.9992C28.9996 23.1786 23.1796 28.9985 16.0003 28.9985C8.82094 28.9985 3.00098 23.1786 3.00098 15.9992C3.00098 8.81985 8.82094 2.99994 16.0003 2.99994C23.1796 2.99994 28.9996 8.81985 28.9996 15.9992Z" stroke="#06414A" stroke-width="1.5" stroke-miterlimit="10" stroke-linecap="round" stroke-linejoin="round"/>
<path d="M16.0002 10.7995V8.19964" stroke="#06414A" stroke-width="1.5" stroke-miterlimit="10" stroke-linecap="round" stroke-linejoin="round"/>
<path d="M16.0002 21.199V23.7989" stroke="#06414A" stroke-width="1.5" stroke-miterlimit="10" stroke-linecap="round" stroke-linejoin="round"/>
<path d="M18.6005 10.7998H15.134C13.6982 10.7998 12.5342 11.9637 12.5342 13.3996C12.5342 14.8354 13.6982 15.9994 15.134 15.9994H16.8673C18.3031 15.9994 19.4671 17.1635 19.4671 18.5994C19.4671 20.0352 18.3031 21.1992 16.8673 21.1992H13.4009" stroke="#06414A" stroke-width="1.5" stroke-miterlimit="10" stroke-linecap="round" stroke-linejoin="round"/>
</svg>