<svg width="30" height="30" viewBox="0 0 30 30" fill="none" xmlns="http://www.w3.org/2000/svg">
<g clip-path="url(#clip0_243_2615)">
<path fill-rule="evenodd" clip-rule="evenodd" d="M26.8942 15.0003H8.64466C8.19136 15.0003 8.19136 14.3159 8.64466 14.3159V5.17936C8.64466 4.72537 8.19136 4.49561 8.64466 4.49561H26.8942C27.2361 4.49561 27.3268 4.89146 27.1385 5.106L22.5945 9.8203L27.1385 14.4861C27.2942 14.6439 27.3115 15.0003 26.8942 15.0003Z" fill="#FD3018"/>
<path fill-rule="evenodd" clip-rule="evenodd" d="M8.64662 26.5164C8.55525 26.5175 8.46457 26.5003 8.37994 26.4659C8.2953 26.4314 8.21841 26.3804 8.1538 26.3158C8.08918 26.2512 8.03814 26.1743 8.00369 26.0896C7.96924 26.005 7.95206 25.9143 7.95318 25.823V3.10271C7.95318 2.18712 9.34006 2.18712 9.34006 3.10271V25.823C9.34006 26.2001 9.02379 26.5164 8.64662 26.5164Z" fill="#D8D7D7"/>
<path fill-rule="evenodd" clip-rule="evenodd" d="M8.64562 3.42015C7.69266 3.42015 6.93555 2.63812 6.93555 1.71007C6.93555 0.782025 7.71757 0 8.64493 0C9.57229 0 10.3557 0.782025 10.3557 1.71007C10.3557 2.63812 9.57367 3.42015 8.64562 3.42015Z" fill="#6E6E6E"/>
<path fill-rule="evenodd" clip-rule="evenodd" d="M11.9188 28.0949H5.37197C5.32671 28.0961 5.28167 28.0881 5.23959 28.0714C5.19752 28.0546 5.15929 28.0295 5.12724 27.9975C5.09519 27.9655 5.06998 27.9274 5.05316 27.8853C5.03634 27.8433 5.02826 27.7982 5.0294 27.753V25.8228C5.0294 25.6277 5.17612 25.481 5.37128 25.481H11.9181C12.114 25.481 12.2607 25.627 12.2607 25.8228V27.7516C12.2589 27.8418 12.2224 27.9278 12.1587 27.9916C12.0949 28.0555 12.009 28.0929 11.9188 28.0949Z" fill="#3D3D3D"/>
<path fill-rule="evenodd" clip-rule="evenodd" d="M14.1672 30.0007H3.09981C3.05455 30.0018 3.00952 29.9938 2.96748 29.9769C2.92544 29.9601 2.88726 29.9349 2.85527 29.9029C2.82329 29.8708 2.79816 29.8326 2.78143 29.7905C2.76469 29.7484 2.7567 29.7034 2.75794 29.6581V27.728C2.75794 27.5328 2.90465 27.3861 3.09981 27.3861H14.1672C14.3624 27.3861 14.5091 27.5328 14.5091 27.728V29.6581C14.5102 29.7033 14.5021 29.7483 14.4854 29.7903C14.4686 29.8323 14.4435 29.8704 14.4115 29.9024C14.3795 29.9344 14.3414 29.9595 14.2994 29.9763C14.2574 29.9931 14.2124 30.0018 14.1672 30.0007Z" fill="#3D3D3D"/>
</g>
<defs>
<clipPath id="clip0_243_2615">
<rect width="30" height="30" fill="white"/>
</clipPath>
</defs>
</svg>
