<svg width="42" height="62" viewBox="0 0 42 62" fill="none" xmlns="http://www.w3.org/2000/svg">
<path d="M41.2594 27.0125H28.7979L32.6954 20.2618C33.8811 18.2077 34.5056 15.878 34.5063 13.5063C34.5063 6.0588 28.4475 0 21.0001 0C13.5527 0 7.49388 6.0588 7.49388 13.5062C7.49388 15.8776 8.12127 18.2152 9.30799 20.2661C9.32494 20.2952 13.2027 27.0125 13.2027 27.0125H0.740723V34.7303H16.1764L12.3175 62H29.6826L25.8237 34.7303H41.2594V27.0125ZM26.013 16.4005L21.0001 25.083C21.0001 25.083 15.9872 16.4005 15.988 16.4005C15.4784 15.5211 15.2106 14.5226 15.2117 13.5063C15.2117 10.3094 17.8032 7.71791 21.0001 7.71791C24.1969 7.71791 26.7885 10.3094 26.7885 13.5063C26.7895 14.5225 26.5219 15.5209 26.013 16.4005Z" fill="white"/>
</svg>
