<svg xmlns="http://www.w3.org/2000/svg" width="11" height="18" viewBox="0 0 11 18" fill="none">
								<path fill-rule="evenodd" clip-rule="evenodd"
									d="M2.77052 1.66553C4.48451 0.638139 6.59129 0.656096 8.2892 1.71257C9.97042 2.79055 10.9922 4.71444 10.9827 6.78401C10.9436 8.84 9.84791 10.7726 8.47834 12.2667C7.68785 13.1328 6.80356 13.8988 5.84353 14.5488C5.83854 14.5518 5.83353 14.5547 5.8285 14.5576C5.64097 14.6647 5.40049 14.6839 5.21744 14.5694C3.75176 13.5926 2.46591 12.3459 1.42175 10.8891C0.548035 9.6731 0.0516473 8.20396 9.11365e-07 6.68121C-0.00113333 4.60767 1.05652 2.69292 2.77052 1.66553ZM3.76133 7.53936C4.04965 8.27262 4.73019 8.75091 5.4852 8.75092C5.97982 8.75458 6.45529 8.5502 6.80566 8.1833C7.15603 7.81641 7.35219 7.3175 7.35043 6.79772C7.35307 6.00434 6.9003 5.28754 6.20353 4.982C5.50675 4.67646 4.70341 4.84246 4.1686 5.40249C3.6338 5.96251 3.47302 6.8061 3.76133 7.53936Z"
									fill="#F54545" />
								<ellipse opacity="0.4" cx="5.4908" cy="16.2833" rx="3.92244" ry="0.809288" fill="#F54545" />
							</svg>