
<svg width="24" height="24" viewBox="0 0 24 24" fill="none" xmlns="http://www.w3.org/2000/svg">
<g clip-path="url(#clip0_243_2511)">
<path d="M23.6002 12C23.6002 18.6528 18.0042 23.9948 11.261 23.5772C5.48336 23.2192 0.780958 18.5168 0.423358 12.7392C0.00535828 5.99604 5.34736 0.400041 12.0002 0.400041C13.7665 0.39701 15.5099 0.799478 17.0962 1.57644C17.5086 1.77884 17.6598 2.29244 17.4322 2.69164L17.4306 2.69444C17.3292 2.8716 17.164 3.00327 16.9687 3.06248C16.7734 3.12168 16.5628 3.10392 16.3802 3.01284C14.853 2.26084 13.107 1.89484 11.2642 2.02644C6.42416 2.37164 2.47136 6.25364 2.04056 11.0868C1.50456 17.1024 6.32536 22.1516 12.2658 21.9964C17.353 21.8636 21.5994 17.8292 21.9718 12.754C22.0688 11.4803 21.9196 10.1997 21.5322 8.98244C21.4749 8.80168 21.4843 8.6064 21.5586 8.43194C21.6328 8.25748 21.767 8.11534 21.937 8.03124C22.3746 7.81244 22.911 8.03124 23.0594 8.49724C23.4188 9.63005 23.6015 10.8116 23.6002 12Z" fill="#78D387"/>
<path d="M6.16414 8.98882L12.4897 17.5476C12.5987 17.6965 12.7432 17.8156 12.91 17.8943C13.0768 17.973 13.2607 18.0087 13.4449 17.9981C13.629 17.9876 13.8076 17.9311 13.9643 17.8338C14.121 17.7365 14.2509 17.6015 14.3421 17.4412L23.4829 1.61802C23.9589 0.794018 22.8729 -0.0343821 22.2253 0.659218L12.7021 10.86L7.17654 7.80162C6.42974 7.38842 5.65374 8.29802 6.16414 8.98882Z" fill="#6BB577"/>
</g>
<defs>
<clipPath id="clip0_243_2511">
<rect width="24" height="24" fill="white"/>
</clipPath>
</defs>
</svg>
