<svg width="24" height="24" viewBox="0 0 24 24" fill="none" xmlns="http://www.w3.org/2000/svg">
<path d="M9.08268 17.8333H8.66602C5.33268 17.8333 3.66602 17 3.66602 12.8333V8.66663C3.66602 5.33329 5.33268 3.66663 8.66602 3.66663H15.3327C18.666 3.66663 20.3327 5.33329 20.3327 8.66663V12.8333C20.3327 16.1666 18.666 17.8333 15.3327 17.8333H14.916C14.6577 17.8333 14.4077 17.9583 14.2493 18.1666L12.9993 19.8333C12.4493 20.5666 11.5493 20.5666 10.9993 19.8333L9.74935 18.1666C9.61602 17.9833 9.30768 17.8333 9.08268 17.8333Z" stroke="#434443" stroke-width="1.2" stroke-miterlimit="10" stroke-linecap="round" stroke-linejoin="round"/>
<path d="M7.83398 8.66663H16.1673" stroke="#434443" stroke-width="1.2" stroke-linecap="round" stroke-linejoin="round"/>
<path d="M7.83398 12.8334H12.834" stroke="#434443" stroke-width="1.2" stroke-linecap="round" stroke-linejoin="round"/>
</svg>
