<svg width="24" height="24" viewBox="0 0 24 24" fill="none" xmlns="http://www.w3.org/2000/svg">
<path d="M20.3077 17.2748C20.3077 17.5748 20.241 17.8832 20.0993 18.1832C19.9577 18.4832 19.7744 18.7665 19.5327 19.0332C19.1244 19.4832 18.6743 19.8082 18.166 20.0165C17.666 20.2248 17.1244 20.3332 16.541 20.3332C15.691 20.3332 14.7827 20.1332 13.8243 19.7248C12.866 19.3165 11.9077 18.7665 10.9577 18.0748C9.99935 17.3748 9.09102 16.5998 8.22435 15.7415C7.36602 14.8748 6.59102 13.9665 5.89935 13.0165C5.21602 12.0665 4.66602 11.1165 4.26602 10.1748C3.86602 9.22484 3.66602 8.3165 3.66602 7.44984C3.66602 6.88317 3.76602 6.3415 3.96602 5.8415C4.16602 5.33317 4.48268 4.8665 4.92435 4.44984C5.45768 3.92484 6.04102 3.6665 6.65768 3.6665C6.89102 3.6665 7.12435 3.7165 7.33268 3.8165C7.54935 3.9165 7.74102 4.0665 7.89102 4.28317L9.82435 7.00817C9.97435 7.2165 10.0827 7.40817 10.1577 7.5915C10.2327 7.7665 10.2743 7.9415 10.2743 8.09984C10.2743 8.29984 10.216 8.49984 10.0993 8.6915C9.99102 8.88317 9.83268 9.08317 9.63268 9.28317L8.99935 9.9415C8.90768 10.0332 8.86602 10.1415 8.86602 10.2748C8.86602 10.3415 8.87435 10.3998 8.89102 10.4665C8.91602 10.5332 8.94102 10.5832 8.95768 10.6332C9.10768 10.9082 9.36602 11.2665 9.73268 11.6998C10.1077 12.1332 10.5077 12.5748 10.941 13.0165C11.391 13.4582 11.8243 13.8665 12.266 14.2415C12.6993 14.6082 13.0577 14.8582 13.341 15.0082C13.3827 15.0248 13.4327 15.0498 13.491 15.0748C13.5577 15.0998 13.6243 15.1082 13.6993 15.1082C13.841 15.1082 13.9493 15.0582 14.041 14.9665L14.6743 14.3415C14.8827 14.1332 15.0827 13.9748 15.2743 13.8748C15.466 13.7582 15.6577 13.6998 15.866 13.6998C16.0243 13.6998 16.191 13.7332 16.3743 13.8082C16.5577 13.8832 16.7494 13.9915 16.9577 14.1332L19.716 16.0915C19.9327 16.2415 20.0827 16.4165 20.1743 16.6248C20.2577 16.8332 20.3077 17.0415 20.3077 17.2748Z" stroke="#434443" stroke-width="1.2" stroke-miterlimit="10"/>
</svg>
