 <svg width="28" height="29" viewBox="0 0 28 29" fill="none" xmlns="http://www.w3.org/2000/svg">
                            <g clip-path="url(#clip0_232_341)">
                                <path
                                    d="M25.9215 4.44549H22.9094V2.7061C22.9094 1.90004 22.273 1.26367 21.467 1.26367C20.6609 1.26367 20.0246 1.90004 20.0246 2.7061V4.44549H7.97608V2.7061C7.97608 1.90004 7.33971 1.26367 6.53365 1.26367C5.72759 1.26367 5.09123 1.94246 5.09123 2.7061V4.44549H2.07911C1.14577 4.44549 0.424561 5.20913 0.424561 6.10004V26.0819C0.424561 26.9728 1.14577 27.7364 2.07911 27.7364H25.9215C26.8124 27.7364 27.5761 27.0152 27.5761 26.0819V6.10004C27.5761 5.20913 26.8549 4.44549 25.9215 4.44549ZM21.467 2.11216C21.8064 2.11216 22.1033 2.40913 22.1033 2.74852V6.10004C22.1033 6.43943 21.8064 6.7364 21.467 6.7364C21.1276 6.7364 20.8306 6.43943 20.8306 6.10004V2.74852C20.8306 2.3667 21.1276 2.11216 21.467 2.11216ZM6.53365 2.11216C6.87304 2.11216 7.17001 2.40913 7.17001 2.74852V6.10004C7.17001 6.43943 6.87304 6.7364 6.53365 6.7364C6.19426 6.7364 5.89729 6.43943 5.89729 6.10004V2.74852C5.93971 2.3667 6.19426 2.11216 6.53365 2.11216ZM2.07911 5.29397H5.09123V6.10004C5.09123 6.9061 5.72759 7.54246 6.53365 7.54246C7.33971 7.54246 7.97608 6.9061 7.97608 6.10004V5.29397H20.0246V6.10004C20.0246 6.9061 20.6609 7.54246 21.467 7.54246C22.273 7.54246 22.9094 6.86367 22.9094 6.05761V5.25155H25.964C26.4306 5.25155 26.77 5.63337 26.77 6.05761V8.43337H1.23062V6.05761C1.23062 5.63337 1.61244 5.29397 2.07911 5.29397ZM25.9215 26.8879H2.07911C1.61244 26.8879 1.27305 26.5061 1.27305 26.0819V9.28185H26.77V26.0819C26.77 26.5485 26.3882 26.8879 25.9215 26.8879Z"
                                    fill="#095763" />
                                <path
                                    d="M18.6666 16.0274H15.3575C15.1454 16.0274 14.9333 16.1971 14.9333 16.4517V19.7608C14.9333 19.9729 15.1029 20.185 15.3575 20.185H18.6666C18.8787 20.185 19.0908 20.0153 19.0908 19.7608V16.4517C19.0908 16.2396 18.8787 16.0274 18.6666 16.0274ZM18.2423 19.3365H15.7817V16.8759H18.2423V19.3365ZM18.6666 10.9365H15.3575C15.1454 10.9365 14.9333 11.1062 14.9333 11.3608V14.6699C14.9333 14.882 15.1029 15.0941 15.3575 15.0941H18.6666C18.8787 15.0941 19.0908 14.9244 19.0908 14.6699V11.3608C19.0908 11.1062 18.8787 10.9365 18.6666 10.9365ZM18.2423 14.2032H15.7817V11.7426H18.2423V14.2032ZM24.6908 16.0274H21.3817C21.1696 16.0274 20.9575 16.1971 20.9575 16.4517V19.7608C20.9575 19.9729 21.1272 20.185 21.3817 20.185H24.6908C24.9029 20.185 25.1151 20.0153 25.1151 19.7608V16.4517C25.1151 16.2396 24.9029 16.0274 24.6908 16.0274ZM24.2666 19.3365H21.806V16.8759H24.2666V19.3365ZM18.3272 21.7971L16.4605 23.6638L15.6969 22.8577C15.5272 22.688 15.2726 22.688 15.1029 22.8577C14.9332 23.0274 14.9332 23.282 15.1029 23.4517L16.1636 24.5123C16.2484 24.5971 16.3333 24.6396 16.4605 24.6396C16.5454 24.6396 16.6726 24.5971 16.7575 24.5123L18.9211 22.3486C19.0908 22.1789 19.0908 21.9244 18.9211 21.7547C18.7514 21.6274 18.4969 21.6274 18.3272 21.7971ZM24.6908 10.9365H21.3817C21.1696 10.9365 20.9575 11.1062 20.9575 11.3608V14.6699C20.9575 14.882 21.1272 15.0941 21.3817 15.0941H24.6908C24.9029 15.0941 25.1151 14.9244 25.1151 14.6699V11.3608C25.1151 11.1062 24.9029 10.9365 24.6908 10.9365ZM24.2666 14.2032H21.806V11.7426H24.2666V14.2032ZM12.6423 16.0274H9.33325C9.12113 16.0274 8.90901 16.1971 8.90901 16.4517V19.7608C8.90901 19.9729 9.0787 20.185 9.33325 20.185H12.6423C12.8545 20.185 13.0666 20.0153 13.0666 19.7608V16.4517C13.0242 16.2396 12.8545 16.0274 12.6423 16.0274ZM12.2181 19.3365H9.75749V16.8759H12.2181V19.3365ZM12.6423 21.1608H9.33325C9.12113 21.1608 8.90901 21.3305 8.90901 21.585V24.8941C8.90901 25.1062 9.0787 25.3183 9.33325 25.3183H12.6423C12.8545 25.3183 13.0666 25.1486 13.0666 24.8941V21.585C13.0242 21.3305 12.8545 21.1608 12.6423 21.1608ZM12.2181 24.4274H9.75749V21.9668H12.2181V24.4274ZM12.6423 10.9365H9.33325C9.12113 10.9365 8.90901 11.1062 8.90901 11.3608V14.6699C8.90901 14.882 9.0787 15.0941 9.33325 15.0941H12.6423C12.8545 15.0941 13.0666 14.9244 13.0666 14.6699V11.3608C13.0242 11.1062 12.8545 10.9365 12.6423 10.9365ZM12.2181 14.2032H9.75749V11.7426H12.2181V14.2032ZM6.57567 16.0274H3.30901C3.09689 16.0274 2.88477 16.1971 2.88477 16.4517V19.7608C2.88477 19.9729 3.05446 20.185 3.30901 20.185H6.6181C6.83022 20.185 7.04234 20.0153 7.04234 19.7608V16.4517C6.99992 16.2396 6.83022 16.0274 6.57567 16.0274ZM6.19386 19.3365H3.73325V16.8759H6.19386V19.3365ZM6.57567 21.1608H3.30901C3.09689 21.1608 2.88477 21.3305 2.88477 21.585V24.8941C2.88477 25.1062 3.05446 25.3183 3.30901 25.3183H6.6181C6.83022 25.3183 7.04234 25.1486 7.04234 24.8941V21.585C6.99992 21.3305 6.83022 21.1608 6.57567 21.1608ZM6.19386 24.4274H3.73325V21.9668H6.19386V24.4274ZM6.57567 10.9365H3.30901C3.09689 10.9365 2.88477 11.1062 2.88477 11.3608V14.6699C2.88477 14.882 3.05446 15.0941 3.30901 15.0941H6.6181C6.83022 15.0941 7.04234 14.9244 7.04234 14.6699V11.3608C6.99992 11.1062 6.83022 10.9365 6.57567 10.9365ZM6.19386 14.2032H3.73325V11.7426H6.19386V14.2032Z"
                                    fill="#095763" />
                            </g>
                            <defs>
                                <clipPath id="clip0_232_341">
                                    <rect width="28" height="28" fill="white" transform="translate(0 0.5)" />
                                </clipPath>
                            </defs>
                        </svg>