
<svg width="20" height="20" viewBox="0 0 20 20" fill="none" xmlns="http://www.w3.org/2000/svg">
<path d="M9.10069 3.48362C9.46752 2.74045 10.5273 2.74045 10.8941 3.48362L12.3399 6.41275C12.4855 6.7076 12.7667 6.91206 13.092 6.95961L16.3269 7.43244C17.1469 7.55229 17.4736 8.56013 16.88 9.13829L14.5409 11.4167C14.305 11.6464 14.1973 11.9775 14.253 12.3021L14.8048 15.5196C14.9449 16.3366 14.0874 16.9595 13.3538 16.5737L10.4628 15.0534C10.1715 14.9002 9.82333 14.9002 9.53194 15.0534L6.64103 16.5737C5.9074 16.9595 5.04985 16.3366 5.18997 15.5196L5.74182 12.3021C5.79748 11.9775 5.68981 11.6464 5.45394 11.4167L3.11474 9.13829C2.52115 8.56013 2.84793 7.55229 3.66785 7.43244L6.90276 6.95961C7.22812 6.91206 7.5093 6.7076 7.65484 6.41275L9.10069 3.48362Z" fill="#FFB800"/>
</svg>
