<svg width="32" height="32" viewBox="0 0 32 32" fill="none" xmlns="http://www.w3.org/2000/svg">
<path d="M14.8965 9.18519C15.3609 9.18519 15.7374 8.8087 15.7374 8.3443V6.99329C15.7374 6.5289 15.3609 6.1524 14.8965 6.1524C14.4321 6.1524 14.0556 6.5289 14.0556 6.99329V8.3443C14.0556 8.8087 14.4321 9.18519 14.8965 9.18519ZM14.8965 22.815C14.4321 22.815 14.0556 23.1915 14.0556 23.6559V25.0069C14.0556 25.4713 14.4321 25.8478 14.8965 25.8478C15.3609 25.8478 15.7374 25.4713 15.7374 25.0069V23.6559C15.7374 23.1915 15.361 22.815 14.8965 22.815ZM7.24073 15.1592H5.88971C5.42532 15.1592 5.04883 15.5357 5.04883 16.0001C5.04883 16.4645 5.42532 16.841 5.88971 16.841H7.24073C7.70512 16.841 8.08161 16.4645 8.08161 16.0001C8.08161 15.5357 7.70512 15.1592 7.24073 15.1592ZM18.0295 15.1592H15.7374V11.947C15.7374 11.4826 15.3609 11.1062 14.8965 11.1062C14.4321 11.1062 14.0556 11.4826 14.0556 11.947V16.0001C14.0556 16.4645 14.4321 16.841 14.8965 16.841H18.0295C18.4939 16.841 18.8704 16.4645 18.8704 16.0001C18.8704 15.5357 18.4939 15.1592 18.0295 15.1592ZM9.63668 9.55108L9.12374 9.03814C8.79541 8.70975 8.26296 8.70975 7.93457 9.03814C7.60617 9.36654 7.60617 9.89893 7.93457 10.2273L8.44751 10.7403C8.77579 11.0686 9.30829 11.0687 9.63668 10.7403C9.96513 10.4119 9.96513 9.87948 9.63668 9.55108ZM21.3455 21.2599C21.0171 20.9315 20.4847 20.9315 20.1563 21.2599C19.8279 21.5883 19.8279 22.1207 20.1563 22.4491L20.6692 22.962C20.9975 23.2904 21.53 23.2905 21.8584 22.962C22.1868 22.6336 22.1868 22.1012 21.8584 21.7729L21.3455 21.2599ZM20.6693 9.03814L20.1563 9.55108C19.8279 9.87948 19.8279 10.4119 20.1563 10.7403C20.4846 11.0686 21.0171 11.0687 21.3455 10.7403L21.8585 10.2273C22.1868 9.89893 22.1868 9.36654 21.8585 9.03814C21.5301 8.70975 20.9976 8.70975 20.6693 9.03814ZM9.12374 22.962L9.63668 22.4491C9.96507 22.1207 9.96507 21.5883 9.63668 21.2599C9.30834 20.9315 8.7759 20.9315 8.44751 21.2599L7.93457 21.7729C7.60617 22.1012 7.60617 22.6336 7.93457 22.962C8.26285 23.2904 8.79535 23.2905 9.12374 22.962Z" fill="#06414A"/>
<path d="M27.65 13.4774C26.4722 7.51245 21.2019 3 14.8965 3C7.72828 3 1.89648 8.8318 1.89648 16C1.89648 23.1683 7.72828 29.0001 14.8965 29.0001C15.3609 29.0001 15.7374 28.6236 15.7374 28.1592C15.7374 27.6948 15.3609 27.3183 14.8965 27.3183C8.65561 27.3183 3.57825 22.241 3.57825 16C3.57825 9.75912 8.65561 4.68176 14.8965 4.68176C20.2706 4.68176 24.7815 8.44667 25.931 13.4774H27.65Z" fill="#06414A"/>
<path d="M30.4894 15.5857C30.4161 15.4562 30.3097 15.3485 30.1812 15.2736C30.0526 15.1987 29.9065 15.1592 29.7577 15.1592H24.3536C24.2048 15.1592 24.0587 15.1987 23.9301 15.2736C23.8015 15.3485 23.6952 15.4563 23.6219 15.5857C23.5485 15.7152 23.5109 15.8619 23.5128 16.0106C23.5146 16.1594 23.556 16.3051 23.6325 16.4327L26.3345 20.936C26.4093 21.0605 26.515 21.1636 26.6413 21.2351C26.7677 21.3066 26.9104 21.3442 27.0556 21.3442C27.2008 21.3442 27.3435 21.3066 27.4698 21.2351C27.5962 21.1636 27.7019 21.0605 27.7766 20.936L30.4786 16.4327C30.5552 16.3051 30.5966 16.1595 30.5985 16.0107C30.6004 15.8619 30.5627 15.7152 30.4894 15.5857Z" fill="#06414A"/>
</svg>
