<svg width="24" height="24" viewBox="0 0 24 24" fill="none" xmlns="http://www.w3.org/2000/svg">
<g clip-path="url(#clip0_197_1360)">
<path d="M12.0014 24C18.6286 24 24.0009 18.6276 24.0009 12.0005C24.0009 5.37333 18.6286 0.000976562 12.0014 0.000976562C5.37431 0.000976562 0.00195312 5.37333 0.00195312 12.0005C0.00195312 18.6276 5.37431 24 12.0014 24Z" fill="white"/>
<path d="M23.3136 7.99902H15.9199C16.2411 10.5624 16.243 13.3869 15.9262 15.9536H23.3293C23.7732 14.6828 23.9997 13.3462 23.9991 12.0002C23.9993 10.5965 23.7562 9.2505 23.3136 7.99902Z" fill="#EFECEC"/>
<path d="M15.9208 7.99914H23.3143C23.3133 7.99558 23.312 7.99209 23.3105 7.9887C21.775 3.65823 17.8245 0.472235 13.0781 0.0493164C14.9147 1.05622 15.4513 4.24618 15.9208 7.99914Z" fill="#C42B27"/>
<path d="M13.0781 23.9504C17.8332 23.5267 21.7892 20.3297 23.3191 15.9877C23.3231 15.9762 23.3265 15.9648 23.3306 15.9536H15.9272C15.4613 19.7268 14.9225 22.9393 13.0781 23.9504Z" fill="#0B0B0B"/>
<path d="M0 12.0002C0 13.3858 0.237983 14.7154 0.669769 15.9536H16.5445C16.8617 13.3868 16.8594 10.5624 16.5387 7.99902H0.685729C0.243101 9.2505 0 10.5965 0 12.0002Z" fill="#EFEFEF"/>
<path d="M0.689347 7.98863C0.688194 7.99215 0.686927 7.99563 0.685547 7.99907H16.5385C16.0686 4.24616 14.9143 1.05616 13.0776 0.0492991C12.7223 0.0178348 12.3631 0 11.9997 0C6.77948 0 2.34028 3.334 0.689347 7.98863Z" fill="#CC3434"/>
<path d="M16.5447 15.9536H0.669922C0.673925 15.9648 0.677674 15.9762 0.681474 15.9877C2.32577 20.6543 6.77141 24 12 24C12.3634 24 12.7226 23.9822 13.0779 23.9504C14.9224 22.9393 16.0788 19.7268 16.5447 15.9536Z" fill="#151515"/>
<path d="M14.3426 14.7911C14.1974 14.7523 13.9822 14.7841 13.8086 14.7737C13.7756 14.793 13.7799 14.8499 13.7651 14.8878C13.7821 14.923 13.8176 14.9037 13.8528 14.9313C13.9075 14.9838 13.9448 15.0549 14.0278 15.0801C13.9564 15.1549 13.9583 15.3025 13.8528 15.3429C13.8706 15.515 13.7588 15.5453 13.59 15.579C12.782 15.7401 11.5256 15.7563 10.6667 15.64C10.5601 15.626 10.247 15.5794 10.1674 15.5091C10.136 15.4807 10.117 15.4384 10.1239 15.36C10.0225 15.3096 10.0214 15.1589 9.94025 15.0886C10.0535 15.0502 10.0753 14.9206 10.2031 14.8962C10.2069 14.8426 10.1838 14.8158 10.1764 14.7738C9.99619 14.7834 9.77715 14.7535 9.625 14.7912C9.63903 14.5955 9.64354 14.373 9.66026 14.1436C9.68246 13.8368 9.67921 13.4774 9.70384 13.1721C9.71671 13.0164 9.71159 12.8553 9.72167 12.6995C9.73986 12.4037 9.72679 12.1101 9.74802 11.8329C9.77057 11.5339 9.76013 11.2144 9.78288 10.9317C9.80619 10.6386 9.8869 10.4044 10.2291 10.4324C10.6347 10.4662 10.8896 10.8059 11.3318 10.8087C11.5372 10.6818 11.6867 10.1886 11.6293 9.81988C11.6029 9.64933 11.4224 9.40284 11.2445 9.49606C11.2181 9.20843 11.4921 9.24709 11.6731 9.33844C11.7282 9.30393 11.7445 9.25545 11.8044 9.24217C11.9527 9.20919 12.1434 9.27668 12.2159 9.32101C12.3537 9.40532 12.4175 9.59233 12.4173 9.8288C12.417 9.95121 12.3897 10.073 12.3995 10.1962C12.4213 10.4575 12.5101 10.6699 12.6185 10.8002C13.0293 10.8379 13.3313 10.4721 13.7298 10.4324C13.8994 10.4158 14.0407 10.4794 14.115 10.5901C14.2283 11.0105 14.1923 11.4749 14.2287 11.9467C14.2505 12.2294 14.2376 12.5248 14.2551 12.8134C14.2946 13.4657 14.3141 14.1208 14.3426 14.7911ZM12.3731 10.2136C12.3553 9.97603 12.4213 9.72138 12.3383 9.50458C12.2994 9.46764 12.2769 9.41419 12.2242 9.39088H12.0933C12.0277 9.42614 12.0037 9.4989 11.9357 9.51329C11.7738 9.5478 11.761 9.39412 11.6382 9.3471C11.6064 9.33459 11.5632 9.34163 11.5242 9.32927C11.4069 9.29345 11.3373 9.2516 11.2792 9.41697C11.4935 9.40446 11.6848 9.47362 11.7343 9.65344C11.6119 9.61934 11.6462 9.72923 11.6555 9.80179C11.7006 10.1625 11.6202 10.4532 11.4979 10.651C11.4397 10.7454 11.3651 10.8191 11.3228 10.9049C11.4501 10.8813 11.5651 10.8886 11.6292 10.8083C11.715 10.7014 11.6965 10.4727 11.7516 10.3446C11.7465 10.6164 11.6694 10.8168 11.5418 10.9659C11.8537 10.9219 11.9079 10.6618 11.9356 10.3446C11.9585 10.5019 11.9166 10.6703 11.8653 10.7821C11.9057 10.8326 11.9286 10.9002 11.9881 10.9313C12.0373 10.8902 12.0739 10.8362 12.1018 10.7736C12.0563 10.6704 12.0023 10.4828 12.0493 10.3447C12.0453 10.6814 12.1374 10.922 12.4259 10.966C12.3098 10.8191 12.1976 10.5758 12.233 10.3358C12.2431 10.5241 12.2886 10.677 12.3467 10.8172C12.4271 10.8684 12.5284 10.8983 12.6535 10.9049C12.5137 10.7347 12.3957 10.5082 12.3731 10.2136ZM11.8221 9.41723V9.45209C11.8432 9.44869 11.8411 9.4684 11.8655 9.461C11.8733 9.45097 11.8775 9.4377 11.8744 9.41743C11.8631 9.40552 11.8331 9.40552 11.8221 9.41723ZM10.1328 10.4586C9.93934 10.4737 9.83491 10.6356 9.83532 10.8264C9.92003 10.7972 10.0007 10.718 10.0892 10.7212C10.0418 12.0383 9.98408 13.2365 9.93159 14.5374C9.85543 14.6092 9.75805 14.661 9.70404 14.7561H10.1766C10.2014 14.5473 10.436 14.5045 10.6318 14.5632C10.7246 14.2421 10.819 13.9222 10.9035 13.5918C10.8165 13.645 10.7722 13.7405 10.6844 13.7932C10.7159 12.951 10.7585 12.1313 10.7896 11.2726C10.9247 11.3777 11.1441 11.384 11.3584 11.3514C11.6149 11.3122 11.8368 11.1701 11.9971 11.0712C12.1651 11.2203 12.473 11.345 12.7849 11.3687C12.9791 11.3835 13.0687 11.3202 13.1876 11.2898C13.2057 12.148 13.2672 12.9873 13.2838 13.8019C13.2124 13.736 13.1535 13.6579 13.0741 13.6003C13.1514 13.9315 13.252 14.2394 13.3365 14.5632C13.5404 14.4988 13.7654 14.5547 13.8005 14.7561C13.9547 14.7502 14.1328 14.7677 14.2726 14.7472C14.2175 14.6494 14.0816 14.6214 14.0455 14.5197C14.0044 14.405 14.0343 14.2303 14.028 14.0818C13.9799 13.0234 13.9127 11.7732 13.8878 10.7127C13.9869 10.736 14.0498 10.7957 14.1417 10.8264C14.122 10.6156 14.0345 10.4719 13.8353 10.4586C13.3823 10.4283 13.121 10.845 12.6627 10.8349C12.6627 10.8905 12.7519 10.903 12.7415 10.9401C12.6538 10.9338 12.524 10.9272 12.4352 10.8965C12.4266 10.945 12.5147 10.9672 12.5225 11.0274C12.3486 10.9979 12.218 10.9245 12.1113 10.8264C12.0706 10.8845 12.034 10.9475 11.98 10.9926C11.9338 10.9401 11.9052 10.8686 11.8487 10.8264C11.7566 10.9327 11.6285 11.003 11.4464 11.0189C11.472 10.9745 11.5249 10.9575 11.5338 10.8965C11.4531 10.9245 11.3188 10.9431 11.2274 10.9317C11.2545 10.8999 11.3007 10.8881 11.3062 10.8351C10.871 10.8472 10.568 10.425 10.1328 10.4586ZM10.9817 11.4043C10.9991 12.3638 11.365 13.0514 11.9967 13.426C12.5988 13.03 12.981 12.368 12.9859 11.4043C12.6772 11.4003 12.4597 11.3554 12.2684 11.273C12.1607 11.2268 12.0571 11.1416 11.9709 11.1153C11.7329 11.3031 11.4072 11.4039 10.9817 11.4043ZM10.9991 12.043C10.9909 12.4682 10.9229 12.9873 10.9555 13.426C11.0447 13.1895 11.0199 12.8897 11.0344 12.5771C11.044 12.3678 11.0868 12.1559 11.008 12.0169C11.0084 12.0288 11.0038 12.0358 10.9991 12.043ZM12.9423 12.8308C12.9423 13.0662 12.9539 13.2956 13.0297 13.4345C13.0386 12.9689 12.98 12.4848 12.9776 12.0252C12.966 12.0248 12.9655 12.0144 12.9512 12.0167C12.8904 12.2476 12.9423 12.5455 12.9423 12.8308ZM11.1393 13.3297C11.2147 13.2446 11.2988 13.1683 11.3668 13.0754C11.3553 12.8859 11.3094 12.7306 11.2092 12.6294C11.1819 12.8541 10.9657 13.1442 11.1393 13.3297ZM12.6096 13.0844C12.6918 13.1602 12.7621 13.2936 12.8546 13.3297C12.9851 13.1169 12.7968 12.8886 12.7761 12.6468C12.7646 12.6465 12.7636 12.6353 12.7494 12.6383C12.6625 12.7461 12.6115 12.8907 12.6096 13.0844ZM11.4368 13.4784C11.5175 13.3926 11.5874 13.296 11.6554 13.1982C11.5466 13.1116 11.4674 12.9955 11.3668 12.9003C11.3894 13.0938 11.4021 13.2968 11.4368 13.4784ZM12.3208 13.2067C12.3974 13.2964 12.4514 13.4087 12.5484 13.4784C12.5662 13.289 12.5806 13.0965 12.6094 12.9182C12.6086 12.9074 12.6068 12.8975 12.592 12.9003C12.5111 13.0122 12.4146 13.1084 12.3208 13.2067ZM11.1129 13.3818C11.1021 13.3255 11.0726 13.2882 11.0604 13.2335C10.9851 13.3341 10.9761 13.4847 10.938 13.6183C10.924 13.6672 10.8903 13.7072 10.8945 13.7585C10.9947 13.7155 11.0358 13.6137 11.1394 13.5745C11.158 13.6611 11.2012 13.7225 11.2268 13.8021C11.3079 13.7632 11.3041 13.6401 11.3759 13.5919C11.4155 13.7329 11.457 13.8724 11.5068 14.0035C11.6001 13.9246 11.7064 13.8583 11.7344 13.7145C11.6819 13.5949 11.6337 13.4711 11.5856 13.3471C11.5146 13.3956 11.4695 13.5169 11.4106 13.5485C11.3947 13.4038 11.4043 13.234 11.3492 13.1284C11.2771 13.2194 11.2029 13.3081 11.1129 13.3818ZM12.5658 13.5569C12.5021 13.4921 12.4582 13.4081 12.3908 13.3471C12.3656 13.4045 12.336 13.4612 12.3119 13.5222C12.2879 13.5832 12.2446 13.6584 12.242 13.7147C12.2354 13.852 12.3868 13.9163 12.4696 14.0036C12.508 13.867 12.5251 13.709 12.5833 13.5921C12.6376 13.6605 12.6621 13.7586 12.7409 13.8022C12.7813 13.7289 12.8093 13.6431 12.846 13.5657C12.9208 13.6313 12.99 13.7023 13.0736 13.7586C13.0355 13.6006 12.9877 13.3778 12.9159 13.2247C12.8993 13.2798 12.8758 13.3327 12.846 13.382C12.7645 13.3031 12.7028 13.2042 12.6095 13.137C12.5833 13.2653 12.5727 13.4093 12.5658 13.5569ZM11.673 13.2246C11.5313 13.3255 11.6886 13.5305 11.7433 13.645C11.7681 13.544 11.791 13.4415 11.8132 13.3383C11.7654 13.3017 11.7187 13.2637 11.673 13.2246ZM12.1632 13.347C12.1896 13.4461 12.1909 13.5702 12.2421 13.6448C12.291 13.5416 12.3271 13.4262 12.373 13.3207C12.3482 13.2845 12.3322 13.2388 12.2856 13.2244C12.2648 13.2848 12.1876 13.2897 12.1632 13.347ZM11.1042 13.6094C11.0355 13.6808 10.9691 13.7545 10.8767 13.8023C10.8157 13.9788 10.9418 14.1287 10.9991 14.2659C11.0787 14.2081 11.1128 14.1048 11.192 14.0473C11.2238 14.1498 11.2456 14.262 11.2971 14.3448C11.3829 14.2845 11.4322 14.142 11.5154 14.1086C11.5347 14.2034 11.5336 14.318 11.5857 14.38C11.6167 14.2127 11.6567 14.0543 11.6904 13.8896C11.6198 13.904 11.5682 14.012 11.498 14.0562C11.4495 13.9296 11.418 13.7864 11.367 13.6621C11.2983 13.7102 11.2886 13.8174 11.2268 13.8722C11.1912 13.7793 11.166 13.6765 11.1042 13.6094ZM12.732 13.8722C12.682 13.7996 12.6524 13.7072 12.5744 13.6621C12.5429 13.7938 12.5071 13.9215 12.4785 14.0562C12.4056 14.0143 12.3567 13.9036 12.2856 13.8896C12.3209 14.0613 12.3408 14.2487 12.408 14.3885C12.4224 14.2863 12.4399 14.1869 12.4695 14.0999C12.5483 14.1757 12.5894 14.289 12.6881 14.3449C12.7155 14.2409 12.7529 14.1473 12.7843 14.0474C12.8584 14.1107 12.8935 14.2125 12.9772 14.2661C13.0257 14.1255 13.1489 13.9943 13.0994 13.8113C13.0085 13.7535 12.9407 13.6727 12.8545 13.6097C12.8034 13.6867 12.7851 13.7964 12.732 13.8722ZM11.7784 14.5634C11.7333 14.5886 11.7015 14.6271 11.6556 14.6511C11.6371 14.6293 11.5831 14.5579 11.5683 14.5897C11.5562 14.6245 11.5547 14.6696 11.5419 14.7037C11.6255 14.7115 11.7907 14.6793 11.8305 14.7562C11.9489 14.7399 12.0444 14.7784 12.1369 14.7562C12.1714 14.7477 12.1983 14.7104 12.2331 14.7037C12.2983 14.6909 12.3616 14.7153 12.426 14.7037C12.4141 14.6656 12.4234 14.6071 12.3993 14.5813C12.3419 14.579 12.352 14.6442 12.2945 14.6423C12.2646 14.6023 12.2106 14.586 12.1805 14.5461C12.1472 14.3026 12.1261 14.046 12.0757 13.8196C12.0558 14.0615 12.1113 14.303 12.1017 14.5635C12.0547 14.6039 12.0321 14.669 11.9792 14.7037C11.9593 14.6451 11.8798 14.6152 11.8652 14.5375C11.8271 14.3236 11.9448 13.992 11.8919 13.8196C11.8428 14.0562 11.832 14.3315 11.7784 14.5634ZM10.6578 14.5723C10.6952 14.596 10.7386 14.6142 10.8066 14.6072C10.864 14.5395 10.9032 14.4531 10.9728 14.3974C11.0039 14.4917 11.0365 14.585 11.0783 14.6687H11.1393C11.1867 14.6113 11.2131 14.5325 11.2618 14.4762C11.2925 14.5446 11.3072 14.6292 11.3402 14.6949C11.3802 14.7108 11.445 14.7011 11.4978 14.7038C11.5863 14.5539 11.5518 14.3159 11.4893 14.1613C11.4089 14.2328 11.3616 14.3368 11.2792 14.4063C11.2436 14.3049 11.2307 14.1806 11.1651 14.1088C11.1041 14.1784 11.0494 14.2549 10.9904 14.3275C10.9283 14.2176 10.9108 14.0626 10.8239 13.9773C10.777 14.1837 10.7175 14.3781 10.6578 14.5723ZM12.9774 14.3273C12.9167 14.2536 12.873 14.1626 12.7934 14.1086C12.7421 14.1941 12.7341 14.3237 12.6794 14.4061C12.6121 14.3303 12.5513 14.2022 12.4696 14.1696C12.4292 14.3483 12.3764 14.5545 12.4785 14.7036C12.5285 14.7013 12.5899 14.7102 12.6273 14.6947C12.6677 14.6333 12.6742 14.5378 12.7146 14.476C12.7516 14.5412 12.7912 14.6034 12.8283 14.6685H12.8982C12.9375 14.5765 12.9646 14.472 13.0123 14.3883C13.0597 14.4722 13.1163 14.5467 13.1785 14.6158C13.2274 14.6033 13.2891 14.6039 13.3098 14.5633C13.2505 14.3746 13.201 14.1762 13.1436 13.986H13.1173C13.0759 14.1048 13.027 14.2166 12.9774 14.3273ZM10.8329 14.6249C10.9066 14.6335 10.9625 14.6587 11.043 14.6598C11.0154 14.5853 11.0019 14.4967 10.9468 14.45C10.9172 14.5164 10.8555 14.5513 10.8329 14.6249ZM12.9334 14.6597C12.9834 14.664 13.0677 14.632 13.1348 14.6248C13.1282 14.5719 13.06 14.5079 13.0211 14.4586C12.966 14.4997 12.9544 14.585 12.9334 14.6597ZM11.1741 14.6774C11.2029 14.6953 11.263 14.6821 11.3055 14.6864C11.2888 14.6356 11.2918 14.5657 11.2445 14.5462C11.2185 14.5875 11.1878 14.6234 11.1741 14.6774ZM12.671 14.6864H12.7934C12.7819 14.6216 12.7601 14.5675 12.7057 14.5462C12.7036 14.5982 12.6585 14.6475 12.671 14.6864ZM13.52 14.5634C13.3154 14.6081 13.0494 14.6856 12.7936 14.7125C12.5967 14.7328 12.4205 14.7388 12.2333 14.7299C12.182 14.7855 12.2085 14.8491 12.2422 14.905C12.4201 14.9317 12.62 14.9194 12.7936 14.8961C12.7839 14.7104 13.0044 14.6643 13.0297 14.8612C13.2188 14.8197 13.4304 14.8006 13.581 14.721C13.5826 14.6471 13.5822 14.5742 13.52 14.5634ZM11.0169 14.6949C10.8666 14.6734 10.6643 14.6024 10.5265 14.5725C10.4484 14.5554 10.4251 14.5694 10.3956 14.6073V14.7301C10.5567 14.7964 10.7547 14.8259 10.947 14.8614C10.9633 14.6638 11.1853 14.7007 11.1741 14.8963C11.3644 14.9192 11.5309 14.9319 11.7259 14.9052C11.7648 14.8438 11.7903 14.7985 11.7433 14.7301C11.5093 14.7352 11.3 14.7358 11.0169 14.6949ZM10.2205 14.7998C10.2812 14.7843 10.3282 14.7559 10.3693 14.721C10.3653 14.6784 10.3782 14.6185 10.3604 14.5897C10.2622 14.6034 10.1923 14.6896 10.2205 14.7998ZM13.6074 14.7299C13.6514 14.7587 13.6958 14.7877 13.7561 14.7998C13.7768 14.6966 13.7143 14.6034 13.6163 14.5897C13.5981 14.6212 13.6114 14.6845 13.6074 14.7299ZM11.0604 14.966C11.0794 14.9442 11.1063 14.9304 11.1304 14.9135C11.1366 14.8433 11.1277 14.7881 11.0955 14.7563C10.9417 14.7348 10.9475 14.949 11.0604 14.966ZM12.8372 14.905C12.8497 14.9353 12.89 14.9419 12.9245 14.966C12.9604 14.9463 12.9774 14.9078 13.0034 14.8786C12.999 14.6867 12.7788 14.7652 12.8372 14.905ZM10.9292 14.8876C10.6961 14.8798 10.4614 14.7162 10.2552 14.8176C10.2486 14.8602 10.2171 14.8783 10.2289 14.9398C10.1302 14.9294 10.0165 15.0609 10.0102 15.1064C9.99654 15.2058 10.0956 15.278 10.15 15.3428C10.1438 15.4043 10.1555 15.448 10.1764 15.4823C10.9172 15.7277 12.1414 15.7328 13.0558 15.6314C13.3245 15.6015 13.7527 15.574 13.8262 15.4213V15.3161C13.9232 15.2906 13.9387 15.1841 13.9661 15.0886C13.8884 15.0378 13.862 14.9361 13.7385 14.9313C13.7629 14.8961 13.7214 14.864 13.7211 14.8262C13.6119 14.7334 13.4816 14.8014 13.3273 14.8347C13.1153 14.8809 12.9764 14.8813 12.9243 15.0363C12.9026 14.9823 12.8503 14.9586 12.8106 14.9223C12.6433 14.9467 12.4232 14.9645 12.2507 14.9312C12.2052 15.0022 12.1052 15.0189 12.0931 15.1237C12.0683 15.0581 12.0268 15.0091 12.0317 14.9135H11.9443C11.9318 14.995 11.914 15.0701 11.8741 15.1237C11.8671 15.017 11.7631 15.0075 11.7257 14.9312C11.5565 14.9704 11.3142 14.935 11.1651 14.9312C11.1052 14.9497 11.0796 15.0026 11.0342 15.0364C11.0275 14.9586 10.9642 14.9372 10.9292 14.8876ZM11.8832 14.7822C11.894 14.8273 11.9239 14.8525 11.9446 14.8878C12.0512 14.9095 12.0607 14.8349 12.0933 14.7822C12.0419 14.768 11.9345 14.768 11.8832 14.7822ZM11.7606 14.9313C11.7979 14.9694 11.835 15.0086 11.8919 15.0276C11.926 14.9369 11.9023 14.8023 11.8042 14.7911C11.8121 14.8603 11.7532 14.8624 11.7606 14.9313ZM12.1371 14.7911C12.0827 14.8303 12.0143 14.9759 12.1018 15.0276C12.1352 14.9846 12.1946 14.9687 12.2159 14.9135C12.1791 14.8832 12.1873 14.8076 12.1371 14.7911Z" fill="#EEBC31"/>
<path d="M10.2818 14.1787C10.1875 14.2619 10.0772 14.3763 9.98438 14.4322C10.0259 13.2376 10.102 12.0102 10.142 10.774C10.2324 10.8151 10.3315 10.9224 10.4133 11.0016C10.3754 12.0704 10.3258 13.05 10.2818 14.1787ZM13.9929 14.4236C13.9429 14.4333 13.8942 14.3514 13.8441 14.3096C13.7875 14.2626 13.721 14.2234 13.6865 14.1697C13.6314 13.2682 13.6447 12.3168 13.5725 11.4568C13.5617 11.3233 13.5348 11.0908 13.555 11.0102C13.5825 10.9036 13.7635 10.863 13.8178 10.7656C13.8847 11.8635 13.9304 13.241 13.9929 14.4236ZM10.492 11.0631C10.5759 11.1101 10.6367 11.1804 10.7106 11.2382C10.6896 11.9417 10.6454 12.7839 10.6143 13.4871C10.61 13.59 10.6395 13.7519 10.6054 13.8461C10.5685 13.9479 10.4256 14.0026 10.3604 14.0911C10.3987 13.0717 10.4582 12.0618 10.492 11.0631ZM13.6077 14.0735C13.5961 14.0856 13.5719 14.0549 13.5552 14.0382C13.5035 13.987 13.4313 13.9083 13.3801 13.8546C13.3358 12.9985 13.3021 12.1054 13.2664 11.2552C13.3157 11.176 13.3996 11.1316 13.4678 11.0712C13.5188 11.9923 13.5636 13.086 13.6077 14.0735ZM12.9074 11.448C12.8941 12.3446 12.5432 12.98 11.9884 13.3645C11.4215 12.9748 11.0899 12.3495 11.0344 11.448C11.4344 11.4453 11.7745 11.3362 11.9884 11.1766C12.2043 11.3576 12.5252 11.4332 12.9074 11.448ZM11.6733 11.3866C11.6578 11.7449 11.6648 12.2274 11.6648 12.6208C11.6648 12.7644 11.6353 12.9331 11.6648 13.0409C11.6804 13.0972 11.7673 13.1493 11.8136 13.1896C11.8734 13.2421 11.9223 13.2895 11.9797 13.321C12.0652 13.2539 12.2736 13.1514 12.3039 13.0407C12.3323 12.9348 12.3039 12.772 12.3039 12.6296V11.3864C12.1902 11.3305 12.0834 11.2683 11.9712 11.2113C11.8908 11.2892 11.7595 11.3151 11.6733 11.3866ZM10.4658 14.6162C10.5206 14.6344 10.6072 14.6205 10.6146 14.6865C10.5684 14.7035 10.531 14.6434 10.4658 14.6512V14.6162ZM13.5114 14.6338C13.4733 14.6656 13.4123 14.6741 13.3627 14.6948C13.3612 14.6338 13.48 14.6042 13.5114 14.6338ZM10.7284 14.7039C10.8021 14.712 10.8724 14.7232 10.912 14.7649C10.8546 14.7672 10.74 14.753 10.7284 14.7039ZM13.249 14.7126C13.2234 14.7437 13.1166 14.7728 13.0561 14.7647C13.0969 14.73 13.1853 14.6957 13.249 14.7126ZM12.7676 14.8263C12.7217 14.8407 12.6207 14.8407 12.5747 14.8263C12.5898 14.7672 12.7479 14.7723 12.7676 14.8263ZM11.4198 14.7999C11.4028 14.8647 11.2796 14.8233 11.2097 14.8348C11.2152 14.7564 11.3613 14.7999 11.4198 14.7999ZM11.682 14.8178C11.6394 14.8403 11.5473 14.8559 11.4981 14.8437C11.5157 14.7963 11.6315 14.8018 11.682 14.8178ZM12.4701 14.8526C12.403 14.8492 12.3473 14.8352 12.2861 14.8263C12.3191 14.7952 12.4701 14.7925 12.4701 14.8526ZM13.678 15.1853C13.7176 15.1842 13.6961 15.1216 13.739 15.1239C13.7327 15.1506 13.7479 15.1557 13.7475 15.1764C13.6967 15.2035 13.6531 15.2168 13.5902 15.1938C13.5214 15.2304 13.4362 15.3566 13.3452 15.2638C13.2823 15.2742 13.2916 15.3558 13.24 15.3778C13.1701 15.3227 13.1101 15.3498 13.0036 15.36C12.9721 15.3958 12.9695 15.4598 12.9073 15.4651C12.9111 15.4251 12.959 15.4295 12.9598 15.3867C12.9501 15.3582 12.9003 15.3704 12.881 15.3514C12.8646 15.2796 12.9206 15.28 12.9424 15.2462C12.9823 15.2559 12.9857 15.3018 12.9949 15.3428C13.0274 15.3432 13.05 15.3339 13.0737 15.325C13.0811 15.2742 13.107 15.2418 13.1347 15.2113C13.1332 15.1628 13.1032 15.0969 13.1084 15.0711C13.1584 15.0827 13.1343 15.1681 13.1608 15.2024C13.2281 15.1962 13.2681 15.218 13.2833 15.2634C13.3513 15.2375 13.3717 15.1583 13.4583 15.1587C13.4964 15.1587 13.5169 15.192 13.5546 15.185C13.565 15.0689 13.5347 14.8301 13.3884 14.9222C13.395 14.8763 13.4598 14.8881 13.5108 14.8873C13.6028 14.9506 13.5147 15.1935 13.678 15.1853ZM13.3714 15.2552C13.4118 15.2914 13.5131 15.2719 13.5027 15.2027C13.4781 15.1586 13.3541 15.1776 13.3714 15.2552ZM13.1965 15.2988C13.2164 15.2926 13.2409 15.2911 13.2575 15.2814C13.2575 15.1816 13.1177 15.2312 13.1965 15.2988ZM13.1177 15.3252C13.1395 15.3267 13.1448 15.3115 13.1613 15.3073C13.1609 15.2789 13.1651 15.2459 13.1349 15.2463C13.119 15.2619 13.094 15.2969 13.1177 15.3252ZM12.9074 15.343C12.9345 15.3551 12.947 15.3468 12.9688 15.3341C12.9688 15.3134 12.9536 15.3081 12.9599 15.2816C12.9237 15.2833 12.9008 15.2977 12.9074 15.343ZM13.205 15.343C13.2327 15.3663 13.2691 15.3419 13.2664 15.3074C13.2393 15.3128 13.2047 15.3097 13.205 15.343ZM10.5005 14.9314V14.975C10.488 14.9886 10.4557 14.9827 10.4305 14.9839C10.4232 14.9529 10.4294 14.9621 10.422 14.9314C10.4461 14.9102 10.4732 14.9155 10.5005 14.9314ZM10.483 15.0364C10.4842 15.052 10.4722 15.055 10.4741 15.0713C10.4385 15.072 10.4057 15.0702 10.4042 15.0364C10.4186 15.0231 10.469 15.0231 10.483 15.0364ZM12.3211 15.1065H12.356C12.3689 15.119 12.3689 15.1639 12.356 15.1765H12.3211C12.3083 15.1637 12.3083 15.119 12.3211 15.1065ZM11.3582 15.1238C11.3853 15.2378 11.4048 15.4837 11.3057 15.5001C11.207 15.516 11.2354 15.3669 11.1395 15.3599C11.081 15.3813 11.0086 15.4061 10.9471 15.3777C10.9035 15.3807 10.9105 15.4343 10.8682 15.4391C10.9245 15.3809 10.9008 15.307 10.8946 15.2375C10.9415 15.243 10.9482 15.2888 10.9471 15.343C10.9722 15.3959 11.0776 15.3605 11.1132 15.343C11.0943 15.3061 11.0706 15.2743 11.0518 15.2375C11.1054 15.2235 11.1054 15.1738 11.157 15.1765C11.2424 15.1805 11.2633 15.3127 11.1744 15.3516C11.2318 15.373 11.2388 15.4448 11.2884 15.474C11.4039 15.4491 11.3194 15.2253 11.3582 15.1238ZM11.096 15.2638C11.0945 15.2971 11.1248 15.3163 11.157 15.3341C11.3046 15.2678 11.1015 15.1234 11.096 15.2638ZM11.4723 15.1238C11.5007 15.184 11.4623 15.3221 11.4545 15.404C11.4293 15.3466 11.4598 15.2009 11.4723 15.1238ZM12.4438 15.1238C12.5023 15.1819 12.4333 15.3676 12.5048 15.4123C12.5646 15.3945 12.605 15.4026 12.6188 15.3513C12.6309 15.3059 12.568 15.2787 12.6014 15.2462C12.6795 15.25 12.6277 15.3599 12.6188 15.4038C12.5275 15.4282 12.4341 15.4368 12.356 15.4212C12.3608 15.3765 12.4077 15.3738 12.4437 15.3598C12.4767 15.2844 12.4248 15.185 12.4438 15.1238ZM12.3913 15.2289C12.3967 15.2801 12.2854 15.2507 12.3213 15.22C12.3339 15.2083 12.3905 15.2022 12.3913 15.2289ZM12.7151 15.5178C12.727 15.4709 12.7558 15.442 12.7765 15.4038C12.7521 15.3549 12.6558 15.309 12.7236 15.2462C12.8581 15.2662 12.7948 15.4858 12.7151 15.5178ZM12.7236 15.2899C12.7279 15.3237 12.7418 15.3481 12.7764 15.3514C12.7975 15.3256 12.7579 15.2608 12.7236 15.2899ZM13.6865 15.2814C13.6862 15.3326 13.624 15.3155 13.5992 15.2988C13.6128 15.25 13.6575 15.2645 13.6865 15.2814ZM11.7173 15.2727C11.7972 15.3286 11.9441 15.3589 12.0496 15.3162C12.0752 15.3407 12.0725 15.3928 12.0936 15.4214C12.104 15.4113 12.1243 15.4113 12.1461 15.4125C12.1279 15.3084 12.2727 15.2829 12.2685 15.395C12.2418 15.4447 12.1634 15.4416 12.0845 15.439C12.0487 15.4587 12.0487 15.5138 12.0146 15.5349C11.9757 15.5212 11.9436 15.5008 11.9358 15.4564C11.8143 15.4313 11.7984 15.4464 11.6555 15.439C11.6203 15.4805 11.5864 15.5663 11.5331 15.5614C11.5587 15.5167 11.6085 15.497 11.6208 15.439C11.6045 15.4057 11.5435 15.3795 11.5768 15.325C11.6608 15.3113 11.6199 15.4223 11.6905 15.4212C11.765 15.3911 11.708 15.3214 11.7173 15.2727ZM11.7436 15.4214C11.791 15.4218 11.8714 15.4229 11.9361 15.4303C11.9636 15.4525 11.9668 15.4987 12.006 15.5092C12.0348 15.4711 12.0845 15.3993 12.0413 15.343C11.9448 15.4227 11.7344 15.2393 11.7436 15.4214ZM12.1809 15.4125C12.2264 15.4203 12.2431 15.3989 12.2424 15.36C12.2092 15.3155 12.1498 15.3671 12.1809 15.4125ZM10.4395 15.3162C10.4671 15.3088 10.4666 15.3299 10.483 15.3341C10.4842 15.3608 10.4722 15.3759 10.4656 15.3951C10.415 15.3881 10.415 15.3439 10.4395 15.3162ZM10.5882 15.3515C10.6252 15.4122 10.5361 15.4447 10.5094 15.3951C10.5128 15.3577 10.5404 15.3443 10.5882 15.3515ZM10.7195 15.4214C10.711 15.4218 10.7125 15.4322 10.7106 15.4393H10.6492C10.6079 15.3671 10.7229 15.3415 10.7195 15.4214ZM12.4348 15.4739C12.4815 15.475 12.476 15.5497 12.4438 15.5616C12.4081 15.5569 12.4108 15.4894 12.4348 15.4739ZM12.5574 15.5616C12.5318 15.5519 12.5057 15.5431 12.4964 15.518C12.5229 15.4343 12.6302 15.5091 12.5574 15.5616ZM10.5447 14.9314H10.571C10.5736 15.0521 10.3908 15.2583 10.5973 15.2727C10.6311 15.2512 10.6125 15.1772 10.6583 15.1675C10.6635 15.2137 10.6405 15.2316 10.632 15.2638C10.672 15.376 10.8736 15.3123 10.7896 15.1854C10.8878 15.1869 10.8107 15.2917 10.7981 15.3341C10.7415 15.3608 10.66 15.3326 10.6145 15.2989C10.5171 15.2911 10.4313 15.2718 10.422 15.1765C10.5094 15.1412 10.5287 15.0379 10.5447 14.9314Z" fill="#EEBC31"/>
</g>
<defs>
<clipPath id="clip0_197_1360">
<rect width="24" height="24" fill="white"/>
</clipPath>
</defs>
</svg>
