<svg width="65" height="64" viewBox="0 0 65 64" fill="none" xmlns="http://www.w3.org/2000/svg">
<path d="M53.3148 16.1774C53.189 16.1774 53.0644 16.1526 52.9481 16.1044C52.8319 16.0563 52.7263 15.9857 52.6373 15.8967C52.5483 15.8078 52.4777 15.7022 52.4296 15.5859C52.3814 15.4697 52.3567 15.3451 52.3567 15.2193V5.10275C52.3567 3.99325 51.454 3.09062 50.3445 3.09062H45.2343C44.1248 3.09062 43.2222 3.99325 43.2222 5.10275V15.2193C43.2222 15.7484 42.7933 16.1774 42.264 16.1774C41.7348 16.1774 41.3059 15.7484 41.3059 15.2193V5.10275C41.3059 2.93675 43.0682 1.1745 45.2342 1.1745H50.3444C52.5104 1.1745 54.2727 2.93675 54.2727 5.10275V15.2193C54.2727 15.3451 54.248 15.4697 54.1999 15.5859C54.1517 15.7022 54.0812 15.8078 53.9922 15.8968C53.9033 15.9857 53.7977 16.0563 53.6814 16.1045C53.5652 16.1526 53.4406 16.1774 53.3148 16.1774Z" fill="#E9A52D"/>
<path d="M50.3446 0H45.2343C42.4208 0 40.1318 2.28912 40.1318 5.10275V6.64C40.1318 7.81588 41.0885 8.7725 42.2644 8.7725C43.4403 8.7725 44.3969 7.81588 44.3969 6.64V5.10275C44.3969 4.64088 44.7725 4.265 45.2344 4.265H50.3448C50.5669 4.26523 50.7798 4.35357 50.9369 4.51063C51.0939 4.66769 51.1823 4.88064 51.1825 5.10275V6.64C51.1825 7.81588 52.1391 8.7725 53.315 8.7725C54.4909 8.7725 55.4476 7.81588 55.4476 6.64V5.10275C55.4474 2.28912 53.1583 0 50.3446 0ZM55.5524 63.9053C54.6315 63.9053 53.885 63.1588 53.885 62.2379V59.5615H57.2196V62.2379C57.2198 63.1588 56.4733 63.9053 55.5524 63.9053ZM40.0265 63.9053C39.1056 63.9053 38.3591 63.1588 38.3591 62.2379V59.5615H41.6938V62.2379C41.6939 63.1588 40.9474 63.9053 40.0265 63.9053Z" fill="#095763"/>
<path d="M59.9253 15.2193H35.6534C33.9371 15.2193 32.5459 16.6105 32.5459 18.3268V56.454C32.5459 58.1703 33.9371 59.5615 35.6534 59.5615H59.9253C61.6415 59.5615 63.0328 58.1703 63.0328 56.454V18.3268C63.0328 16.6105 61.6415 15.2193 59.9253 15.2193Z" fill="#095763"/>
<path d="M59.9254 15.2193H56.8759C58.592 15.2193 59.9834 16.6105 59.9834 18.3268V56.454C59.9834 58.1703 58.5921 59.5615 56.8759 59.5615H59.9254C61.6415 59.5615 63.0329 58.1703 63.0329 56.454V18.3268C63.0329 16.6105 61.6416 15.2193 59.9254 15.2193ZM39.0204 54.2559C38.7663 54.2559 38.5226 54.1549 38.3429 53.9753C38.1632 53.7956 38.0623 53.5519 38.0623 53.2978V19.6358C38.0623 19.1066 38.4911 18.6776 39.0204 18.6776C39.5496 18.6776 39.9785 19.1066 39.9785 19.6358V53.2978C39.9785 53.5519 39.8775 53.7955 39.6978 53.9752C39.5182 54.1549 39.2745 54.2558 39.0204 54.2559ZM44.8664 54.2559C44.7406 54.2559 44.616 54.2311 44.4997 54.1829C44.3835 54.1348 44.2779 54.0642 44.1889 53.9753C44.0999 53.8863 44.0293 53.7807 43.9812 53.6644C43.933 53.5482 43.9083 53.4236 43.9083 53.2978V19.6358C43.9083 19.1066 44.3371 18.6776 44.8664 18.6776C45.3956 18.6776 45.8245 19.1066 45.8245 19.6358V53.2978C45.8245 53.5519 45.7236 53.7956 45.5439 53.9753C45.3642 54.1549 45.1205 54.2559 44.8664 54.2559ZM50.7126 54.2559C50.4585 54.2559 50.2148 54.1549 50.0351 53.9753C49.8555 53.7956 49.7545 53.5519 49.7545 53.2978V19.6358C49.7545 19.1066 50.1834 18.6776 50.7126 18.6776C51.2419 18.6776 51.6708 19.1066 51.6708 19.6358V53.2978C51.6707 53.5519 51.5698 53.7955 51.3901 53.9752C51.2104 54.1549 50.9667 54.2558 50.7126 54.2559Z" fill="#DFFE8E"/>
<path d="M56.5587 54.2559C56.3046 54.2559 56.0609 54.1549 55.8812 53.9753C55.7015 53.7956 55.6006 53.5519 55.6006 53.2978V19.6358C55.6006 19.1066 56.0295 18.6776 56.5587 18.6776C57.088 18.6776 57.5168 19.1066 57.5168 19.6358V53.2978C57.5168 53.4236 57.4921 53.5482 57.4439 53.6644C57.3958 53.7807 57.3252 53.8863 57.2362 53.9753C57.1472 54.0642 57.0416 54.1348 56.9254 54.1829C56.8091 54.2311 56.6845 54.2559 56.5587 54.2559Z" fill="#095763"/>
<path d="M24.4773 28.8114C24.2232 28.8114 23.9795 28.7104 23.7998 28.5308C23.6201 28.3511 23.5192 28.1074 23.5192 27.8533V25.3045C23.5192 23.9716 22.4348 22.8873 21.1021 22.8873C19.7691 22.8873 18.6848 23.9716 18.6848 25.3045V27.8533C18.6848 28.3824 18.2559 28.8114 17.7267 28.8114C17.1974 28.8114 16.7686 28.3824 16.7686 27.8533V25.3045C16.7686 22.915 18.7126 20.9711 21.1021 20.9711C23.4914 20.9711 25.4354 22.915 25.4354 25.3045V27.8533C25.4354 28.1074 25.3345 28.3511 25.1548 28.5308C24.9751 28.7104 24.7314 28.8114 24.4773 28.8114Z" fill="#095763"/>
<path d="M6.54834 61.2816V30.5716C6.54834 29.0703 7.76546 27.8533 9.26671 27.8533H32.9375C34.4388 27.8533 35.6558 29.0704 35.6558 30.5716V61.2815C35.6558 62.7829 34.4387 63.9999 32.9375 63.9999H9.26671C7.76534 64 6.54834 62.7829 6.54834 61.2816Z" fill="#095763"/>
<path d="M32.9376 27.8533H29.9976C31.4989 27.8533 32.7159 29.0704 32.7159 30.5716V61.2815C32.7159 62.7829 31.4988 63.9999 29.9976 63.9999H32.9376C34.4389 63.9999 35.6559 62.7828 35.6559 61.2815V30.5716C35.6561 29.0703 34.4389 27.8533 32.9376 27.8533Z" fill="#095763"/>
<path d="M6.54834 36.2523V30.5716C6.54834 29.0703 7.76546 27.8533 9.26671 27.8533H32.9375C34.4388 27.8533 35.6558 29.0704 35.6558 30.5716V36.2523C35.6558 37.7536 34.4387 38.9706 32.9375 38.9706H9.26671C7.76534 38.9708 6.54834 37.7536 6.54834 36.2523Z" fill="#DFFE8E"/>
<path d="M32.9376 27.8533H29.9976C31.4989 27.8533 32.7159 29.0704 32.7159 30.5716V36.2523C32.7159 37.7536 31.4988 38.9706 29.9976 38.9706H32.9376C34.4389 38.9706 35.6559 37.7535 35.6559 36.2523V30.5716C35.6561 29.0703 34.4389 27.8533 32.9376 27.8533Z" fill="#DFFE8E"/>
<path d="M11.8098 50.2576V57.2783C11.8098 58.0289 12.4183 58.6375 13.1691 58.6375H29.0351C29.7857 58.6375 30.3943 58.029 30.3943 57.2783V50.2576C30.3943 49.507 29.7858 48.8984 29.0351 48.8984H13.1691C12.4184 48.8984 11.8098 49.5069 11.8098 50.2576Z" fill="#095763"/>
<path d="M37.5189 49.0638H35.656V60.0961H37.5189C39.0203 60.0961 40.2373 58.879 40.2373 57.3778V51.7822C40.2373 50.2809 39.0203 49.0638 37.5189 49.0638ZM6.54842 49.0638H4.68542C3.18404 49.0638 1.96704 50.2809 1.96704 51.7821V57.3776C1.96704 58.879 3.18417 60.096 4.68542 60.096H6.54829L6.54842 49.0638Z" fill="#E9A52D"/>
<path d="M27.3907 27.8533H30.6711V41.9029H27.3907V27.8533ZM11.5332 27.8533H14.8136V41.9029H11.5332V27.8533Z" fill="#E9A52D"/>
<path d="M31.4628 44.5424H26.5991C26.3789 44.5424 26.1677 44.4549 26.012 44.2992C25.8562 44.1434 25.7688 43.9322 25.7688 43.712V42.7331C25.7688 42.5129 25.8562 42.3017 26.012 42.146C26.1677 41.9902 26.3789 41.9028 26.5991 41.9028H31.4628C31.683 41.9028 31.8942 41.9902 32.0499 42.146C32.2056 42.3017 32.2931 42.5129 32.2931 42.7331V43.712C32.2931 43.9322 32.2056 44.1434 32.0499 44.2992C31.8942 44.4549 31.683 44.5424 31.4628 44.5424ZM15.6053 44.5424H10.7418C10.5215 44.5424 10.3103 44.4549 10.1546 44.2992C9.99886 44.1434 9.91138 43.9322 9.91138 43.712V42.7331C9.91138 42.5129 9.99886 42.3017 10.1546 42.146C10.3103 41.9902 10.5215 41.9028 10.7418 41.9028H15.6054C15.8256 41.9028 16.0368 41.9902 16.1925 42.146C16.3483 42.3017 16.4358 42.5129 16.4358 42.7331V43.712C16.4357 43.9322 16.3482 44.1435 16.1925 44.2992C16.0367 44.4549 15.8255 44.5424 15.6053 44.5424Z" fill="#F8E837"/>
</svg>
